<?xml version="1.0" encoding="UTF-8"?>
<!DOCTYPE svg PUBLIC "-//W3C//DTD SVG 1.1//EN" "http://www.w3.org/Graphics/SVG/1.1/DTD/svg11.dtd">
<svg xmlns="http://www.w3.org/2000/svg" version="1.1" width="213px" height="77px" style="shape-rendering:geometricPrecision; text-rendering:geometricPrecision; image-rendering:optimizeQuality; fill-rule:evenodd; clip-rule:evenodd" xmlns:xlink="http://www.w3.org/1999/xlink">
<g><path style="opacity:0.984" fill="#323437" d="M 140.5,-0.5 C 140.833,-0.5 141.167,-0.5 141.5,-0.5C 142.11,0.391047 142.443,1.39105 142.5,2.5C 142.5,3.83333 141.833,4.5 140.5,4.5C 140.5,3.5 140.5,2.5 140.5,1.5C 140.5,0.833333 140.5,0.166667 140.5,-0.5 Z"/></g>
<g><path style="opacity:0.984" fill="#323437" d="M 182.5,-0.5 C 182.833,-0.5 183.167,-0.5 183.5,-0.5C 184.11,0.391047 184.443,1.39105 184.5,2.5C 184.5,3.83333 183.833,4.5 182.5,4.5C 182.5,3.5 182.5,2.5 182.5,1.5C 182.5,0.833333 182.5,0.166667 182.5,-0.5 Z"/></g>
<g><path style="opacity:0.984" fill="#323437" d="M 22.5,3.5 C 22.5,4.83333 21.8333,5.5 20.5,5.5C 20.5,4.5 20.5,3.5 20.5,2.5C 21.3013,0.207065 21.968,0.540398 22.5,3.5 Z"/></g>
<g><path style="opacity:0.984" fill="#323437" d="M 62.5,3.5 C 62.5,4.83333 61.8333,5.5 60.5,5.5C 60.5,4.5 60.5,3.5 60.5,2.5C 61.3013,0.207065 61.968,0.540398 62.5,3.5 Z"/></g>
<g><path style="opacity:0.984" fill="#323437" d="M 100.5,3.5 C 100.5,4.83333 99.8333,5.5 98.5,5.5C 98.5,4.5 98.5,3.5 98.5,2.5C 99.3013,0.207065 99.968,0.540398 100.5,3.5 Z"/></g>
<g><path style="opacity:0.796" fill="#3b3b3d" d="M 142.5,2.5 C 143.674,3.51369 144.34,4.84702 144.5,6.5C 143.075,4.96895 142.409,5.30228 142.5,7.5C 141.778,7.08247 141.278,6.4158 141,5.5C 140.722,6.4158 140.222,7.08247 139.5,7.5C 139.263,6.20895 139.596,5.20895 140.5,4.5C 141.833,4.5 142.5,3.83333 142.5,2.5 Z"/></g>
<g><path style="opacity:0.796" fill="#3b3b3d" d="M 184.5,2.5 C 185.674,3.51369 186.34,4.84702 186.5,6.5C 185.075,4.96895 184.409,5.30228 184.5,7.5C 183.778,7.08247 183.278,6.4158 183,5.5C 182.722,6.4158 182.222,7.08247 181.5,7.5C 181.263,6.20895 181.596,5.20895 182.5,4.5C 183.833,4.5 184.5,3.83333 184.5,2.5 Z"/></g>
<g><path style="opacity:0.796" fill="#3b3b3d" d="M 22.5,3.5 C 23.6737,4.51369 24.3404,5.84702 24.5,7.5C 23.0755,5.96895 22.4088,6.30228 22.5,8.5C 21.7784,8.08247 21.2784,7.4158 21,6.5C 20.7216,7.4158 20.2216,8.08247 19.5,8.5C 19.2627,7.20895 19.596,6.20895 20.5,5.5C 21.8333,5.5 22.5,4.83333 22.5,3.5 Z"/></g>
<g><path style="opacity:0.796" fill="#3b3b3d" d="M 62.5,3.5 C 63.6737,4.51369 64.3404,5.84702 64.5,7.5C 63.0755,5.96895 62.4088,6.30228 62.5,8.5C 61.7784,8.08247 61.2784,7.4158 61,6.5C 60.7216,7.4158 60.2216,8.08247 59.5,8.5C 59.2627,7.20895 59.596,6.20895 60.5,5.5C 61.8333,5.5 62.5,4.83333 62.5,3.5 Z"/></g>
<g><path style="opacity:0.796" fill="#3b3b3d" d="M 100.5,3.5 C 101.674,4.51369 102.34,5.84702 102.5,7.5C 101.075,5.96895 100.409,6.30228 100.5,8.5C 99.7784,8.08247 99.2784,7.4158 99,6.5C 98.7216,7.4158 98.2216,8.08247 97.5,8.5C 97.2627,7.20895 97.596,6.20895 98.5,5.5C 99.8333,5.5 100.5,4.83333 100.5,3.5 Z"/></g>
<g><path style="opacity:0.851" fill="#292f37" d="M 140.5,1.5 C 140.5,2.5 140.5,3.5 140.5,4.5C 139.596,5.20895 139.263,6.20895 139.5,7.5C 138.833,7.5 138.167,7.5 137.5,7.5C 137.992,5.18147 138.992,3.18147 140.5,1.5 Z"/></g>
<g><path style="opacity:0.851" fill="#292f37" d="M 182.5,1.5 C 182.5,2.5 182.5,3.5 182.5,4.5C 181.596,5.20895 181.263,6.20895 181.5,7.5C 180.833,7.5 180.167,7.5 179.5,7.5C 179.992,5.18147 180.992,3.18147 182.5,1.5 Z"/></g>
<g><path style="opacity:0.851" fill="#292f37" d="M 20.5,2.5 C 20.5,3.5 20.5,4.5 20.5,5.5C 19.596,6.20895 19.2627,7.20895 19.5,8.5C 18.8333,8.5 18.1667,8.5 17.5,8.5C 17.9925,6.18147 18.9925,4.18147 20.5,2.5 Z"/></g>
<g><path style="opacity:0.851" fill="#292f37" d="M 60.5,2.5 C 60.5,3.5 60.5,4.5 60.5,5.5C 59.596,6.20895 59.2627,7.20895 59.5,8.5C 58.8333,8.5 58.1667,8.5 57.5,8.5C 57.9925,6.18147 58.9925,4.18147 60.5,2.5 Z"/></g>
<g><path style="opacity:0.851" fill="#292f37" d="M 98.5,2.5 C 98.5,3.5 98.5,4.5 98.5,5.5C 97.596,6.20895 97.2627,7.20895 97.5,8.5C 96.8333,8.5 96.1667,8.5 95.5,8.5C 95.9925,6.18147 96.9925,4.18147 98.5,2.5 Z"/></g>
<g><path style="opacity:0.792" fill="#353637" d="M 144.5,6.5 C 145.674,7.51369 146.34,8.84702 146.5,10.5C 146.5,11.8333 145.833,12.5 144.5,12.5C 144.5,11.8333 144.167,11.5 143.5,11.5C 143.167,10.1667 142.833,8.83333 142.5,7.5C 142.409,5.30228 143.075,4.96895 144.5,6.5 Z"/></g>
<g><path style="opacity:0.792" fill="#353637" d="M 186.5,6.5 C 187.674,7.51369 188.34,8.84702 188.5,10.5C 188.5,11.8333 187.833,12.5 186.5,12.5C 186.5,11.8333 186.167,11.5 185.5,11.5C 185.167,10.1667 184.833,8.83333 184.5,7.5C 184.409,5.30228 185.075,4.96895 186.5,6.5 Z"/></g>
<g><path style="opacity:0.792" fill="#353637" d="M 24.5,7.5 C 25.6737,8.51369 26.3404,9.84702 26.5,11.5C 26.5,12.8333 25.8333,13.5 24.5,13.5C 24.5,12.8333 24.1667,12.5 23.5,12.5C 23.1667,11.1667 22.8333,9.83333 22.5,8.5C 22.4088,6.30228 23.0755,5.96895 24.5,7.5 Z"/></g>
<g><path style="opacity:0.792" fill="#353637" d="M 64.5,7.5 C 65.6737,8.51369 66.3404,9.84702 66.5,11.5C 66.5,12.8333 65.8333,13.5 64.5,13.5C 64.5,12.8333 64.1667,12.5 63.5,12.5C 63.1667,11.1667 62.8333,9.83333 62.5,8.5C 62.4088,6.30228 63.0755,5.96895 64.5,7.5 Z"/></g>
<g><path style="opacity:0.792" fill="#353637" d="M 102.5,7.5 C 103.674,8.51369 104.34,9.84702 104.5,11.5C 104.5,12.8333 103.833,13.5 102.5,13.5C 102.5,12.8333 102.167,12.5 101.5,12.5C 101.167,11.1667 100.833,9.83333 100.5,8.5C 100.409,6.30228 101.075,5.96895 102.5,7.5 Z"/></g>
<g><path style="opacity:0.788" fill="#303437" d="M 132.5,9.5 C 131.001,9.95994 130.001,11.2933 129.5,13.5C 129.34,15.153 128.674,16.4863 127.5,17.5C 127.5,16.1667 127.5,14.8333 127.5,13.5C 128.128,10.91 129.295,8.57663 131,6.5C 132.039,7.24382 132.539,8.24382 132.5,9.5 Z"/></g>
<g><path style="opacity:0.788" fill="#303437" d="M 174.5,9.5 C 173.001,9.95994 172.001,11.2933 171.5,13.5C 171.34,15.153 170.674,16.4863 169.5,17.5C 169.5,16.1667 169.5,14.8333 169.5,13.5C 170.128,10.91 171.295,8.57663 173,6.5C 174.039,7.24382 174.539,8.24382 174.5,9.5 Z"/></g>
<g><path style="opacity:0.788" fill="#303437" d="M 12.5,10.5 C 11.0008,10.9599 10.0008,12.2933 9.5,14.5C 9.3404,16.153 8.67373,17.4863 7.5,18.5C 7.5,17.1667 7.5,15.8333 7.5,14.5C 8.12835,11.91 9.29501,9.57663 11,7.5C 12.0386,8.24382 12.5386,9.24382 12.5,10.5 Z"/></g>
<g><path style="opacity:0.788" fill="#303437" d="M 52.5,10.5 C 51.0008,10.9599 50.0008,12.2933 49.5,14.5C 49.3404,16.153 48.6737,17.4863 47.5,18.5C 47.5,17.1667 47.5,15.8333 47.5,14.5C 48.1283,11.91 49.295,9.57663 51,7.5C 52.0386,8.24382 52.5386,9.24382 52.5,10.5 Z"/></g>
<g><path style="opacity:0.788" fill="#303437" d="M 90.5,10.5 C 89.0008,10.9599 88.0008,12.2933 87.5,14.5C 87.3404,16.153 86.6737,17.4863 85.5,18.5C 85.5,17.1667 85.5,15.8333 85.5,14.5C 86.1283,11.91 87.295,9.57663 89,7.5C 90.0386,8.24382 90.5386,9.24382 90.5,10.5 Z"/></g>
<g><path style="opacity:0.804" fill="#3a3b3c" d="M 132.5,9.5 C 133.674,10.5137 134.34,11.847 134.5,13.5C 133.075,11.9689 132.409,12.3023 132.5,14.5C 131.778,14.0825 131.278,13.4158 131,12.5C 130.617,13.056 130.117,13.3893 129.5,13.5C 130.001,11.2933 131.001,9.95994 132.5,9.5 Z"/></g>
<g><path style="opacity:0.38" fill="#2d3339" d="M 137.5,7.5 C 138.167,7.5 138.833,7.5 139.5,7.5C 139.262,9.64487 138.262,11.3115 136.5,12.5C 135.366,10.5615 135.7,8.89479 137.5,7.5 Z"/></g>
<g><path style="opacity:0.804" fill="#3a3b3c" d="M 174.5,9.5 C 175.674,10.5137 176.34,11.847 176.5,13.5C 175.075,11.9689 174.409,12.3023 174.5,14.5C 173.778,14.0825 173.278,13.4158 173,12.5C 172.617,13.056 172.117,13.3893 171.5,13.5C 172.001,11.2933 173.001,9.95994 174.5,9.5 Z"/></g>
<g><path style="opacity:0.38" fill="#2d3339" d="M 179.5,7.5 C 180.167,7.5 180.833,7.5 181.5,7.5C 181.262,9.64487 180.262,11.3115 178.5,12.5C 177.366,10.5615 177.7,8.89479 179.5,7.5 Z"/></g>
<g><path style="opacity:0.804" fill="#3a3b3c" d="M 12.5,10.5 C 13.6737,11.5137 14.3404,12.847 14.5,14.5C 13.0755,12.9689 12.4088,13.3023 12.5,15.5C 11.7784,15.0825 11.2784,14.4158 11,13.5C 10.6174,14.056 10.1174,14.3893 9.5,14.5C 10.0008,12.2933 11.0008,10.9599 12.5,10.5 Z"/></g>
<g><path style="opacity:0.38" fill="#2d3339" d="M 17.5,8.5 C 18.1667,8.5 18.8333,8.5 19.5,8.5C 19.2623,10.6449 18.2623,12.3115 16.5,13.5C 15.3664,11.5615 15.6997,9.89479 17.5,8.5 Z"/></g>
<g><path style="opacity:0.804" fill="#3a3b3c" d="M 52.5,10.5 C 53.6737,11.5137 54.3404,12.847 54.5,14.5C 53.0755,12.9689 52.4088,13.3023 52.5,15.5C 51.7784,15.0825 51.2784,14.4158 51,13.5C 50.6174,14.056 50.1174,14.3893 49.5,14.5C 50.0008,12.2933 51.0008,10.9599 52.5,10.5 Z"/></g>
<g><path style="opacity:0.38" fill="#2d3339" d="M 57.5,8.5 C 58.1667,8.5 58.8333,8.5 59.5,8.5C 59.2623,10.6449 58.2623,12.3115 56.5,13.5C 55.3664,11.5615 55.6997,9.89479 57.5,8.5 Z"/></g>
<g><path style="opacity:0.804" fill="#3a3b3c" d="M 90.5,10.5 C 91.6737,11.5137 92.3404,12.847 92.5,14.5C 91.0755,12.9689 90.4088,13.3023 90.5,15.5C 89.7784,15.0825 89.2784,14.4158 89,13.5C 88.6174,14.056 88.1174,14.3893 87.5,14.5C 88.0008,12.2933 89.0008,10.9599 90.5,10.5 Z"/></g>
<g><path style="opacity:0.38" fill="#2d3339" d="M 95.5,8.5 C 96.1667,8.5 96.8333,8.5 97.5,8.5C 97.2623,10.6449 96.2623,12.3115 94.5,13.5C 93.3664,11.5615 93.6997,9.89479 95.5,8.5 Z"/></g>
<g><path style="opacity:0.798" fill="#3c3d3e" d="M 146.5,10.5 C 147.674,11.5137 148.34,12.847 148.5,14.5C 147.075,12.9689 146.409,13.3023 146.5,15.5C 145.599,14.7095 144.932,13.7095 144.5,12.5C 145.833,12.5 146.5,11.8333 146.5,10.5 Z"/></g>
<g><path style="opacity:0.798" fill="#3c3d3e" d="M 188.5,10.5 C 189.674,11.5137 190.34,12.847 190.5,14.5C 189.075,12.9689 188.409,13.3023 188.5,15.5C 187.599,14.7095 186.932,13.7095 186.5,12.5C 187.833,12.5 188.5,11.8333 188.5,10.5 Z"/></g>
<g><path style="opacity:0.798" fill="#3c3d3e" d="M 26.5,11.5 C 27.6737,12.5137 28.3404,13.847 28.5,15.5C 27.0755,13.9689 26.4088,14.3023 26.5,16.5C 25.5987,15.7095 24.9321,14.7095 24.5,13.5C 25.8333,13.5 26.5,12.8333 26.5,11.5 Z"/></g>
<g><path style="opacity:0.798" fill="#3c3d3e" d="M 66.5,11.5 C 67.6737,12.5137 68.3404,13.847 68.5,15.5C 67.0755,13.9689 66.4088,14.3023 66.5,16.5C 65.5987,15.7095 64.9321,14.7095 64.5,13.5C 65.8333,13.5 66.5,12.8333 66.5,11.5 Z"/></g>
<g><path style="opacity:0.798" fill="#3c3d3e" d="M 104.5,11.5 C 105.674,12.5137 106.34,13.847 106.5,15.5C 105.075,13.9689 104.409,14.3023 104.5,16.5C 103.599,15.7095 102.932,14.7095 102.5,13.5C 103.833,13.5 104.5,12.8333 104.5,11.5 Z"/></g>
<g><path style="opacity:0.682" fill="#37383a" d="M 143.5,11.5 C 143.405,13.7857 142.738,15.7857 141.5,17.5C 141.5,15.8333 141.5,14.1667 141.5,12.5C 141.842,11.6618 142.508,11.3284 143.5,11.5 Z"/></g>
<g><path style="opacity:0.796" fill="#38393a" d="M 148.5,14.5 C 149.674,15.5137 150.34,16.847 150.5,18.5C 149.883,18.3893 149.383,18.056 149,17.5C 146.894,19.291 144.394,19.9577 141.5,19.5C 141.167,19.5 140.833,19.5 140.5,19.5C 140.5,19.1667 140.5,18.8333 140.5,18.5C 140.833,18.5 141.167,18.5 141.5,18.5C 143.527,18.6621 145.527,18.4955 147.5,18C 146.748,17.3292 146.414,16.4959 146.5,15.5C 146.409,13.3023 147.075,12.9689 148.5,14.5 Z"/></g>
<g><path style="opacity:0.682" fill="#37383a" d="M 185.5,11.5 C 185.405,13.7857 184.738,15.7857 183.5,17.5C 183.5,15.8333 183.5,14.1667 183.5,12.5C 183.842,11.6618 184.508,11.3284 185.5,11.5 Z"/></g>
<g><path style="opacity:0.796" fill="#38393a" d="M 190.5,14.5 C 191.674,15.5137 192.34,16.847 192.5,18.5C 191.883,18.3893 191.383,18.056 191,17.5C 188.894,19.291 186.394,19.9577 183.5,19.5C 183.167,19.5 182.833,19.5 182.5,19.5C 182.5,19.1667 182.5,18.8333 182.5,18.5C 182.833,18.5 183.167,18.5 183.5,18.5C 185.527,18.6621 187.527,18.4955 189.5,18C 188.748,17.3292 188.414,16.4959 188.5,15.5C 188.409,13.3023 189.075,12.9689 190.5,14.5 Z"/></g>
<g><path style="opacity:0.682" fill="#37383a" d="M 23.5,12.5 C 23.405,14.7857 22.7384,16.7857 21.5,18.5C 21.5,16.8333 21.5,15.1667 21.5,13.5C 21.8417,12.6618 22.5084,12.3284 23.5,12.5 Z"/></g>
<g><path style="opacity:0.796" fill="#38393a" d="M 28.5,15.5 C 29.6737,16.5137 30.3404,17.847 30.5,19.5C 29.8826,19.3893 29.3826,19.056 29,18.5C 26.8938,20.291 24.3938,20.9577 21.5,20.5C 21.1667,20.5 20.8333,20.5 20.5,20.5C 20.5,20.1667 20.5,19.8333 20.5,19.5C 20.8333,19.5 21.1667,19.5 21.5,19.5C 23.5273,19.6621 25.5273,19.4955 27.5,19C 26.7476,18.3292 26.4142,17.4959 26.5,16.5C 26.4088,14.3023 27.0755,13.9689 28.5,15.5 Z"/></g>
<g><path style="opacity:0.682" fill="#37383a" d="M 63.5,12.5 C 63.405,14.7857 62.7384,16.7857 61.5,18.5C 61.5,16.8333 61.5,15.1667 61.5,13.5C 61.8417,12.6618 62.5084,12.3284 63.5,12.5 Z"/></g>
<g><path style="opacity:0.796" fill="#38393a" d="M 68.5,15.5 C 69.6737,16.5137 70.3404,17.847 70.5,19.5C 69.8826,19.3893 69.3826,19.056 69,18.5C 66.8938,20.291 64.3938,20.9577 61.5,20.5C 61.1667,20.5 60.8333,20.5 60.5,20.5C 60.5,20.1667 60.5,19.8333 60.5,19.5C 60.8333,19.5 61.1667,19.5 61.5,19.5C 63.5273,19.6621 65.5273,19.4955 67.5,19C 66.7476,18.3292 66.4142,17.4959 66.5,16.5C 66.4088,14.3023 67.0755,13.9689 68.5,15.5 Z"/></g>
<g><path style="opacity:0.682" fill="#37383a" d="M 101.5,12.5 C 101.405,14.7857 100.738,16.7857 99.5,18.5C 99.5,16.8333 99.5,15.1667 99.5,13.5C 99.8417,12.6618 100.508,12.3284 101.5,12.5 Z"/></g>
<g><path style="opacity:0.796" fill="#38393a" d="M 106.5,15.5 C 107.674,16.5137 108.34,17.847 108.5,19.5C 107.883,19.3893 107.383,19.056 107,18.5C 104.894,20.291 102.394,20.9577 99.5,20.5C 99.1667,20.5 98.8333,20.5 98.5,20.5C 98.5,20.1667 98.5,19.8333 98.5,19.5C 98.8333,19.5 99.1667,19.5 99.5,19.5C 101.527,19.6621 103.527,19.4955 105.5,19C 104.748,18.3292 104.414,17.4959 104.5,16.5C 104.409,14.3023 105.075,13.9689 106.5,15.5 Z"/></g>
<g><path style="opacity:0.857" fill="#2c353d" d="M 127.5,13.5 C 127.5,14.8333 127.5,16.1667 127.5,17.5C 127.5,17.8333 127.5,18.1667 127.5,18.5C 127.167,18.5 126.833,18.5 126.5,18.5C 125.662,18.8417 125.328,19.5084 125.5,20.5C 125.5,20.8333 125.5,21.1667 125.5,21.5C 124.624,21.6309 123.957,21.2975 123.5,20.5C 124.929,18.1074 126.263,15.7741 127.5,13.5 Z"/></g>
<g><path style="opacity:0.798" fill="#373739" d="M 134.5,13.5 C 135.674,14.5137 136.34,15.847 136.5,17.5C 135.075,15.9689 134.409,16.3023 134.5,18.5C 134.167,18.5 133.833,18.5 133.5,18.5C 133.167,17.1667 132.833,15.8333 132.5,14.5C 132.409,12.3023 133.075,11.9689 134.5,13.5 Z"/></g>
<g><path style="opacity:0.973" fill="#2b3239" d="M 141.5,12.5 C 141.5,14.1667 141.5,15.8333 141.5,17.5C 141.5,17.8333 141.5,18.1667 141.5,18.5C 141.167,18.5 140.833,18.5 140.5,18.5C 140.672,17.5084 140.338,16.8417 139.5,16.5C 139.66,14.847 140.326,13.5137 141.5,12.5 Z"/></g>
<g><path style="opacity:0.857" fill="#2c353d" d="M 169.5,13.5 C 169.5,14.8333 169.5,16.1667 169.5,17.5C 169.5,17.8333 169.5,18.1667 169.5,18.5C 169.167,18.5 168.833,18.5 168.5,18.5C 167.662,18.8417 167.328,19.5084 167.5,20.5C 167.5,20.8333 167.5,21.1667 167.5,21.5C 166.624,21.6309 165.957,21.2975 165.5,20.5C 166.929,18.1074 168.263,15.7741 169.5,13.5 Z"/></g>
<g><path style="opacity:0.798" fill="#373739" d="M 176.5,13.5 C 177.674,14.5137 178.34,15.847 178.5,17.5C 177.075,15.9689 176.409,16.3023 176.5,18.5C 176.167,18.5 175.833,18.5 175.5,18.5C 175.167,17.1667 174.833,15.8333 174.5,14.5C 174.409,12.3023 175.075,11.9689 176.5,13.5 Z"/></g>
<g><path style="opacity:0.973" fill="#2b3239" d="M 183.5,12.5 C 183.5,14.1667 183.5,15.8333 183.5,17.5C 183.5,17.8333 183.5,18.1667 183.5,18.5C 183.167,18.5 182.833,18.5 182.5,18.5C 182.672,17.5084 182.338,16.8417 181.5,16.5C 181.66,14.847 182.326,13.5137 183.5,12.5 Z"/></g>
<g><path style="opacity:0.857" fill="#2c353d" d="M 7.5,14.5 C 7.5,15.8333 7.5,17.1667 7.5,18.5C 7.5,18.8333 7.5,19.1667 7.5,19.5C 7.16667,19.5 6.83333,19.5 6.5,19.5C 5.66175,19.8417 5.32842,20.5084 5.5,21.5C 5.5,21.8333 5.5,22.1667 5.5,22.5C 4.62356,22.6309 3.95689,22.2975 3.5,21.5C 4.92946,19.1074 6.26279,16.7741 7.5,14.5 Z"/></g>
<g><path style="opacity:0.798" fill="#373739" d="M 14.5,14.5 C 15.6737,15.5137 16.3404,16.847 16.5,18.5C 15.0755,16.9689 14.4088,17.3023 14.5,19.5C 14.1667,19.5 13.8333,19.5 13.5,19.5C 13.1667,18.1667 12.8333,16.8333 12.5,15.5C 12.4088,13.3023 13.0755,12.9689 14.5,14.5 Z"/></g>
<g><path style="opacity:0.973" fill="#2b3239" d="M 21.5,13.5 C 21.5,15.1667 21.5,16.8333 21.5,18.5C 21.5,18.8333 21.5,19.1667 21.5,19.5C 21.1667,19.5 20.8333,19.5 20.5,19.5C 20.6716,18.5084 20.3382,17.8417 19.5,17.5C 19.6596,15.847 20.3263,14.5137 21.5,13.5 Z"/></g>
<g><path style="opacity:0.857" fill="#2c353d" d="M 47.5,14.5 C 47.5,15.8333 47.5,17.1667 47.5,18.5C 47.5,18.8333 47.5,19.1667 47.5,19.5C 47.1667,19.5 46.8333,19.5 46.5,19.5C 45.6618,19.8417 45.3284,20.5084 45.5,21.5C 45.5,21.8333 45.5,22.1667 45.5,22.5C 44.6236,22.6309 43.9569,22.2975 43.5,21.5C 44.9295,19.1074 46.2628,16.7741 47.5,14.5 Z"/></g>
<g><path style="opacity:0.798" fill="#373739" d="M 54.5,14.5 C 55.6737,15.5137 56.3404,16.847 56.5,18.5C 55.0755,16.9689 54.4088,17.3023 54.5,19.5C 54.1667,19.5 53.8333,19.5 53.5,19.5C 53.1667,18.1667 52.8333,16.8333 52.5,15.5C 52.4088,13.3023 53.0755,12.9689 54.5,14.5 Z"/></g>
<g><path style="opacity:0.973" fill="#2b3239" d="M 61.5,13.5 C 61.5,15.1667 61.5,16.8333 61.5,18.5C 61.5,18.8333 61.5,19.1667 61.5,19.5C 61.1667,19.5 60.8333,19.5 60.5,19.5C 60.6716,18.5084 60.3382,17.8417 59.5,17.5C 59.6596,15.847 60.3263,14.5137 61.5,13.5 Z"/></g>
<g><path style="opacity:0.857" fill="#2c353d" d="M 85.5,14.5 C 85.5,15.8333 85.5,17.1667 85.5,18.5C 85.5,18.8333 85.5,19.1667 85.5,19.5C 85.1667,19.5 84.8333,19.5 84.5,19.5C 83.6618,19.8417 83.3284,20.5084 83.5,21.5C 83.5,21.8333 83.5,22.1667 83.5,22.5C 82.6236,22.6309 81.9569,22.2975 81.5,21.5C 82.9295,19.1074 84.2628,16.7741 85.5,14.5 Z"/></g>
<g><path style="opacity:0.798" fill="#373739" d="M 92.5,14.5 C 93.6737,15.5137 94.3404,16.847 94.5,18.5C 93.0755,16.9689 92.4088,17.3023 92.5,19.5C 92.1667,19.5 91.8333,19.5 91.5,19.5C 91.1667,18.1667 90.8333,16.8333 90.5,15.5C 90.4088,13.3023 91.0755,12.9689 92.5,14.5 Z"/></g>
<g><path style="opacity:0.973" fill="#2b3239" d="M 99.5,13.5 C 99.5,15.1667 99.5,16.8333 99.5,18.5C 99.5,18.8333 99.5,19.1667 99.5,19.5C 99.1667,19.5 98.8333,19.5 98.5,19.5C 98.6716,18.5084 98.3382,17.8417 97.5,17.5C 97.6596,15.847 98.3263,14.5137 99.5,13.5 Z"/></g>
<g><path style="opacity:0.788" fill="#373739" d="M 136.5,17.5 C 137.167,17.5 137.5,17.8333 137.5,18.5C 137.5,18.8333 137.5,19.1667 137.5,19.5C 136.075,17.9689 135.409,18.3023 135.5,20.5C 134.662,20.1583 134.328,19.4916 134.5,18.5C 134.409,16.3023 135.075,15.9689 136.5,17.5 Z"/></g>
<g><path style="opacity:0.969" fill="#30363c" d="M 139.5,16.5 C 140.338,16.8417 140.672,17.5084 140.5,18.5C 140.5,18.8333 140.5,19.1667 140.5,19.5C 140.672,20.4916 140.338,21.1583 139.5,21.5C 138.833,20.8333 138.167,20.1667 137.5,19.5C 137.5,19.1667 137.5,18.8333 137.5,18.5C 138.167,17.8333 138.833,17.1667 139.5,16.5 Z"/></g>
<g><path style="opacity:0.788" fill="#373739" d="M 178.5,17.5 C 179.167,17.5 179.5,17.8333 179.5,18.5C 179.5,18.8333 179.5,19.1667 179.5,19.5C 178.075,17.9689 177.409,18.3023 177.5,20.5C 176.662,20.1583 176.328,19.4916 176.5,18.5C 176.409,16.3023 177.075,15.9689 178.5,17.5 Z"/></g>
<g><path style="opacity:0.969" fill="#30363c" d="M 181.5,16.5 C 182.338,16.8417 182.672,17.5084 182.5,18.5C 182.5,18.8333 182.5,19.1667 182.5,19.5C 182.672,20.4916 182.338,21.1583 181.5,21.5C 180.833,20.8333 180.167,20.1667 179.5,19.5C 179.5,19.1667 179.5,18.8333 179.5,18.5C 180.167,17.8333 180.833,17.1667 181.5,16.5 Z"/></g>
<g><path style="opacity:0.788" fill="#373739" d="M 16.5,18.5 C 17.1667,18.5 17.5,18.8333 17.5,19.5C 17.5,19.8333 17.5,20.1667 17.5,20.5C 16.0755,18.9689 15.4088,19.3023 15.5,21.5C 14.6618,21.1583 14.3284,20.4916 14.5,19.5C 14.4088,17.3023 15.0755,16.9689 16.5,18.5 Z"/></g>
<g><path style="opacity:0.969" fill="#30363c" d="M 19.5,17.5 C 20.3382,17.8417 20.6716,18.5084 20.5,19.5C 20.5,19.8333 20.5,20.1667 20.5,20.5C 20.6716,21.4916 20.3382,22.1583 19.5,22.5C 18.8333,21.8333 18.1667,21.1667 17.5,20.5C 17.5,20.1667 17.5,19.8333 17.5,19.5C 18.1667,18.8333 18.8333,18.1667 19.5,17.5 Z"/></g>
<g><path style="opacity:0.788" fill="#373739" d="M 56.5,18.5 C 57.1667,18.5 57.5,18.8333 57.5,19.5C 57.5,19.8333 57.5,20.1667 57.5,20.5C 56.0755,18.9689 55.4088,19.3023 55.5,21.5C 54.6618,21.1583 54.3284,20.4916 54.5,19.5C 54.4088,17.3023 55.0755,16.9689 56.5,18.5 Z"/></g>
<g><path style="opacity:0.969" fill="#30363c" d="M 59.5,17.5 C 60.3382,17.8417 60.6716,18.5084 60.5,19.5C 60.5,19.8333 60.5,20.1667 60.5,20.5C 60.6716,21.4916 60.3382,22.1583 59.5,22.5C 58.8333,21.8333 58.1667,21.1667 57.5,20.5C 57.5,20.1667 57.5,19.8333 57.5,19.5C 58.1667,18.8333 58.8333,18.1667 59.5,17.5 Z"/></g>
<g><path style="opacity:0.788" fill="#373739" d="M 94.5,18.5 C 95.1667,18.5 95.5,18.8333 95.5,19.5C 95.5,19.8333 95.5,20.1667 95.5,20.5C 94.0755,18.9689 93.4088,19.3023 93.5,21.5C 92.6618,21.1583 92.3284,20.4916 92.5,19.5C 92.4088,17.3023 93.0755,16.9689 94.5,18.5 Z"/></g>
<g><path style="opacity:0.969" fill="#30363c" d="M 97.5,17.5 C 98.3382,17.8417 98.6716,18.5084 98.5,19.5C 98.5,19.8333 98.5,20.1667 98.5,20.5C 98.6716,21.4916 98.3382,22.1583 97.5,22.5C 96.8333,21.8333 96.1667,21.1667 95.5,20.5C 95.5,20.1667 95.5,19.8333 95.5,19.5C 96.1667,18.8333 96.8333,18.1667 97.5,17.5 Z"/></g>
<g><path style="opacity:0.118" fill="#393a3b" d="M 126.5,18.5 C 126.833,18.5 127.167,18.5 127.5,18.5C 129.5,18.5 131.5,18.5 133.5,18.5C 133.5,19.5 133.5,20.5 133.5,21.5C 130.833,21.5 128.167,21.5 125.5,21.5C 125.5,21.1667 125.5,20.8333 125.5,20.5C 127.857,20.6633 130.19,20.4966 132.5,20C 130.292,19.8091 128.292,19.3091 126.5,18.5 Z"/></g>
<g><path style="opacity:0.118" fill="#393a3b" d="M 168.5,18.5 C 168.833,18.5 169.167,18.5 169.5,18.5C 171.5,18.5 173.5,18.5 175.5,18.5C 175.5,19.5 175.5,20.5 175.5,21.5C 172.833,21.5 170.167,21.5 167.5,21.5C 167.5,21.1667 167.5,20.8333 167.5,20.5C 169.857,20.6633 172.19,20.4966 174.5,20C 172.292,19.8091 170.292,19.3091 168.5,18.5 Z"/></g>
<g><path style="opacity:0.118" fill="#393a3b" d="M 6.5,19.5 C 6.83333,19.5 7.16667,19.5 7.5,19.5C 9.5,19.5 11.5,19.5 13.5,19.5C 13.5,20.5 13.5,21.5 13.5,22.5C 10.8333,22.5 8.16667,22.5 5.5,22.5C 5.5,22.1667 5.5,21.8333 5.5,21.5C 7.85684,21.6633 10.1902,21.4966 12.5,21C 10.2922,20.8091 8.29221,20.3091 6.5,19.5 Z"/></g>
<g><path style="opacity:0.118" fill="#393a3b" d="M 46.5,19.5 C 46.8333,19.5 47.1667,19.5 47.5,19.5C 49.5,19.5 51.5,19.5 53.5,19.5C 53.5,20.5 53.5,21.5 53.5,22.5C 50.8333,22.5 48.1667,22.5 45.5,22.5C 45.5,22.1667 45.5,21.8333 45.5,21.5C 47.8568,21.6633 50.1902,21.4966 52.5,21C 50.2922,20.8091 48.2922,20.3091 46.5,19.5 Z"/></g>
<g><path style="opacity:0.118" fill="#393a3b" d="M 84.5,19.5 C 84.8333,19.5 85.1667,19.5 85.5,19.5C 87.5,19.5 89.5,19.5 91.5,19.5C 91.5,20.5 91.5,21.5 91.5,22.5C 88.8333,22.5 86.1667,22.5 83.5,22.5C 83.5,22.1667 83.5,21.8333 83.5,21.5C 85.8568,21.6633 88.1902,21.4966 90.5,21C 88.2922,20.8091 86.2922,20.3091 84.5,19.5 Z"/></g>
<g><path style="opacity:0.987" fill="#2c2d2f" d="M 126.5,18.5 C 128.292,19.3091 130.292,19.8091 132.5,20C 130.19,20.4966 127.857,20.6633 125.5,20.5C 125.328,19.5084 125.662,18.8417 126.5,18.5 Z"/></g>
<g><path style="opacity:0.988" fill="#2c2e31" d="M 150.5,18.5 C 148.365,20.369 145.698,21.0356 142.5,20.5C 141.833,20.5 141.5,20.1667 141.5,19.5C 144.394,19.9577 146.894,19.291 149,17.5C 149.383,18.056 149.883,18.3893 150.5,18.5 Z"/></g>
<g><path style="opacity:0.987" fill="#2c2d2f" d="M 168.5,18.5 C 170.292,19.3091 172.292,19.8091 174.5,20C 172.19,20.4966 169.857,20.6633 167.5,20.5C 167.328,19.5084 167.662,18.8417 168.5,18.5 Z"/></g>
<g><path style="opacity:0.988" fill="#2c2e31" d="M 192.5,18.5 C 190.365,20.369 187.698,21.0356 184.5,20.5C 183.833,20.5 183.5,20.1667 183.5,19.5C 186.394,19.9577 188.894,19.291 191,17.5C 191.383,18.056 191.883,18.3893 192.5,18.5 Z"/></g>
<g><path style="opacity:0.987" fill="#2c2d2f" d="M 6.5,19.5 C 8.29221,20.3091 10.2922,20.8091 12.5,21C 10.1902,21.4966 7.85684,21.6633 5.5,21.5C 5.32842,20.5084 5.66175,19.8417 6.5,19.5 Z"/></g>
<g><path style="opacity:0.988" fill="#2c2e31" d="M 30.5,19.5 C 28.3647,21.369 25.6981,22.0356 22.5,21.5C 21.8333,21.5 21.5,21.1667 21.5,20.5C 24.3938,20.9577 26.8938,20.291 29,18.5C 29.3826,19.056 29.8826,19.3893 30.5,19.5 Z"/></g>
<g><path style="opacity:0.987" fill="#2c2d2f" d="M 46.5,19.5 C 48.2922,20.3091 50.2922,20.8091 52.5,21C 50.1902,21.4966 47.8568,21.6633 45.5,21.5C 45.3284,20.5084 45.6618,19.8417 46.5,19.5 Z"/></g>
<g><path style="opacity:0.988" fill="#2c2e31" d="M 70.5,19.5 C 68.3647,21.369 65.6981,22.0356 62.5,21.5C 61.8333,21.5 61.5,21.1667 61.5,20.5C 64.3938,20.9577 66.8938,20.291 69,18.5C 69.3826,19.056 69.8826,19.3893 70.5,19.5 Z"/></g>
<g><path style="opacity:0.987" fill="#2c2d2f" d="M 84.5,19.5 C 86.2922,20.3091 88.2922,20.8091 90.5,21C 88.1902,21.4966 85.8568,21.6633 83.5,21.5C 83.3284,20.5084 83.6618,19.8417 84.5,19.5 Z"/></g>
<g><path style="opacity:0.988" fill="#2c2e31" d="M 108.5,19.5 C 106.365,21.369 103.698,22.0356 100.5,21.5C 99.8333,21.5 99.5,21.1667 99.5,20.5C 102.394,20.9577 104.894,20.291 107,18.5C 107.383,19.056 107.883,19.3893 108.5,19.5 Z"/></g>
<g><path style="opacity:0.929" fill="#323335" d="M 137.5,19.5 C 138.167,20.1667 138.833,20.8333 139.5,21.5C 137.649,25.3866 136.316,25.0532 135.5,20.5C 135.409,18.3023 136.075,17.9689 137.5,19.5 Z"/></g>
<g><path style="opacity:0.314" fill="#393a3c" d="M 150.5,18.5 C 151.404,19.209 151.737,20.209 151.5,21.5C 148.287,21.81 145.287,21.4767 142.5,20.5C 145.698,21.0356 148.365,20.369 150.5,18.5 Z"/></g>
<g><path style="opacity:0.929" fill="#323335" d="M 179.5,19.5 C 180.167,20.1667 180.833,20.8333 181.5,21.5C 179.649,25.3866 178.316,25.0532 177.5,20.5C 177.409,18.3023 178.075,17.9689 179.5,19.5 Z"/></g>
<g><path style="opacity:0.314" fill="#393a3c" d="M 192.5,18.5 C 193.404,19.209 193.737,20.209 193.5,21.5C 190.287,21.81 187.287,21.4767 184.5,20.5C 187.698,21.0356 190.365,20.369 192.5,18.5 Z"/></g>
<g><path style="opacity:0.929" fill="#323335" d="M 17.5,20.5 C 18.1667,21.1667 18.8333,21.8333 19.5,22.5C 17.6491,26.3866 16.3157,26.0532 15.5,21.5C 15.4088,19.3023 16.0755,18.9689 17.5,20.5 Z"/></g>
<g><path style="opacity:0.314" fill="#393a3c" d="M 30.5,19.5 C 31.404,20.209 31.7373,21.209 31.5,22.5C 28.2869,22.81 25.2869,22.4767 22.5,21.5C 25.6981,22.0356 28.3647,21.369 30.5,19.5 Z"/></g>
<g><path style="opacity:0.929" fill="#323335" d="M 57.5,20.5 C 58.1667,21.1667 58.8333,21.8333 59.5,22.5C 57.6491,26.3866 56.3157,26.0532 55.5,21.5C 55.4088,19.3023 56.0755,18.9689 57.5,20.5 Z"/></g>
<g><path style="opacity:0.314" fill="#393a3c" d="M 70.5,19.5 C 71.404,20.209 71.7373,21.209 71.5,22.5C 68.2869,22.81 65.2869,22.4767 62.5,21.5C 65.6981,22.0356 68.3647,21.369 70.5,19.5 Z"/></g>
<g><path style="opacity:0.929" fill="#323335" d="M 95.5,20.5 C 96.1667,21.1667 96.8333,21.8333 97.5,22.5C 95.6491,26.3866 94.3157,26.0532 93.5,21.5C 93.4088,19.3023 94.0755,18.9689 95.5,20.5 Z"/></g>
<g><path style="opacity:0.314" fill="#393a3c" d="M 108.5,19.5 C 109.404,20.209 109.737,21.209 109.5,22.5C 106.287,22.81 103.287,22.4767 100.5,21.5C 103.698,22.0356 106.365,21.369 108.5,19.5 Z"/></g>
<g><path style="opacity:0.984" fill="#323437" d="M 161.5,28.5 C 161.5,29.8333 160.833,30.5 159.5,30.5C 159.5,29.5 159.5,28.5 159.5,27.5C 160.301,25.2071 160.968,25.5404 161.5,28.5 Z"/></g>
<g><path style="opacity:0.984" fill="#323437" d="M 203.5,28.5 C 203.5,29.8333 202.833,30.5 201.5,30.5C 201.5,29.5 201.5,28.5 201.5,27.5C 202.301,25.2071 202.968,25.5404 203.5,28.5 Z"/></g>
<g><path style="opacity:0.984" fill="#323437" d="M 41.5,29.5 C 41.5,30.8333 40.8333,31.5 39.5,31.5C 39.5,30.5 39.5,29.5 39.5,28.5C 40.3013,26.2071 40.968,26.5404 41.5,29.5 Z"/></g>
<g><path style="opacity:0.984" fill="#323437" d="M 81.5,29.5 C 81.5,30.8333 80.8333,31.5 79.5,31.5C 79.5,30.5 79.5,29.5 79.5,28.5C 80.3013,26.2071 80.968,26.5404 81.5,29.5 Z"/></g>
<g><path style="opacity:0.984" fill="#323437" d="M 119.5,29.5 C 119.5,30.8333 118.833,31.5 117.5,31.5C 117.5,30.5 117.5,29.5 117.5,28.5C 118.301,26.2071 118.968,26.5404 119.5,29.5 Z"/></g>
<g><path style="opacity:0.796" fill="#3b3b3d" d="M 161.5,28.5 C 162.674,29.5137 163.34,30.847 163.5,32.5C 162.075,30.9689 161.409,31.3023 161.5,33.5C 160.778,33.0825 160.278,32.4158 160,31.5C 159.722,32.4158 159.222,33.0825 158.5,33.5C 158.263,32.209 158.596,31.209 159.5,30.5C 160.833,30.5 161.5,29.8333 161.5,28.5 Z"/></g>
<g><path style="opacity:0.796" fill="#3b3b3d" d="M 203.5,28.5 C 204.674,29.5137 205.34,30.847 205.5,32.5C 204.075,30.9689 203.409,31.3023 203.5,33.5C 202.778,33.0825 202.278,32.4158 202,31.5C 201.722,32.4158 201.222,33.0825 200.5,33.5C 200.263,32.209 200.596,31.209 201.5,30.5C 202.833,30.5 203.5,29.8333 203.5,28.5 Z"/></g>
<g><path style="opacity:0.796" fill="#3b3b3d" d="M 41.5,29.5 C 42.6737,30.5137 43.3404,31.847 43.5,33.5C 42.0755,31.9689 41.4088,32.3023 41.5,34.5C 40.7784,34.0825 40.2784,33.4158 40,32.5C 39.7216,33.4158 39.2216,34.0825 38.5,34.5C 38.2627,33.209 38.596,32.209 39.5,31.5C 40.8333,31.5 41.5,30.8333 41.5,29.5 Z"/></g>
<g><path style="opacity:0.796" fill="#3b3b3d" d="M 81.5,29.5 C 82.6737,30.5137 83.3404,31.847 83.5,33.5C 82.0755,31.9689 81.4088,32.3023 81.5,34.5C 80.7784,34.0825 80.2784,33.4158 80,32.5C 79.7216,33.4158 79.2216,34.0825 78.5,34.5C 78.2627,33.209 78.596,32.209 79.5,31.5C 80.8333,31.5 81.5,30.8333 81.5,29.5 Z"/></g>
<g><path style="opacity:0.796" fill="#3b3b3d" d="M 119.5,29.5 C 120.674,30.5137 121.34,31.847 121.5,33.5C 120.075,31.9689 119.409,32.3023 119.5,34.5C 118.778,34.0825 118.278,33.4158 118,32.5C 117.722,33.4158 117.222,34.0825 116.5,34.5C 116.263,33.209 116.596,32.209 117.5,31.5C 118.833,31.5 119.5,30.8333 119.5,29.5 Z"/></g>
<g><path style="opacity:0.851" fill="#292f37" d="M 159.5,27.5 C 159.5,28.5 159.5,29.5 159.5,30.5C 158.596,31.209 158.263,32.209 158.5,33.5C 157.833,33.5 157.167,33.5 156.5,33.5C 156.992,31.1815 157.992,29.1815 159.5,27.5 Z"/></g>
<g><path style="opacity:0.851" fill="#292f37" d="M 201.5,27.5 C 201.5,28.5 201.5,29.5 201.5,30.5C 200.596,31.209 200.263,32.209 200.5,33.5C 199.833,33.5 199.167,33.5 198.5,33.5C 198.992,31.1815 199.992,29.1815 201.5,27.5 Z"/></g>
<g><path style="opacity:0.851" fill="#292f37" d="M 39.5,28.5 C 39.5,29.5 39.5,30.5 39.5,31.5C 38.596,32.209 38.2627,33.209 38.5,34.5C 37.8333,34.5 37.1667,34.5 36.5,34.5C 36.9925,32.1815 37.9925,30.1815 39.5,28.5 Z"/></g>
<g><path style="opacity:0.851" fill="#292f37" d="M 79.5,28.5 C 79.5,29.5 79.5,30.5 79.5,31.5C 78.596,32.209 78.2627,33.209 78.5,34.5C 77.8333,34.5 77.1667,34.5 76.5,34.5C 76.9925,32.1815 77.9925,30.1815 79.5,28.5 Z"/></g>
<g><path style="opacity:0.851" fill="#292f37" d="M 117.5,28.5 C 117.5,29.5 117.5,30.5 117.5,31.5C 116.596,32.209 116.263,33.209 116.5,34.5C 115.833,34.5 115.167,34.5 114.5,34.5C 114.992,32.1815 115.992,30.1815 117.5,28.5 Z"/></g>
<g><path style="opacity:0.792" fill="#353637" d="M 163.5,32.5 C 164.674,33.5137 165.34,34.847 165.5,36.5C 165.5,37.8333 164.833,38.5 163.5,38.5C 163.5,37.8333 163.167,37.5 162.5,37.5C 162.167,36.1667 161.833,34.8333 161.5,33.5C 161.409,31.3023 162.075,30.9689 163.5,32.5 Z"/></g>
<g><path style="opacity:0.792" fill="#353637" d="M 205.5,32.5 C 206.674,33.5137 207.34,34.847 207.5,36.5C 207.5,37.8333 206.833,38.5 205.5,38.5C 205.5,37.8333 205.167,37.5 204.5,37.5C 204.167,36.1667 203.833,34.8333 203.5,33.5C 203.409,31.3023 204.075,30.9689 205.5,32.5 Z"/></g>
<g><path style="opacity:0.792" fill="#353637" d="M 43.5,33.5 C 44.6737,34.5137 45.3404,35.847 45.5,37.5C 45.5,38.8333 44.8333,39.5 43.5,39.5C 43.5,38.8333 43.1667,38.5 42.5,38.5C 42.1667,37.1667 41.8333,35.8333 41.5,34.5C 41.4088,32.3023 42.0755,31.9689 43.5,33.5 Z"/></g>
<g><path style="opacity:0.792" fill="#353637" d="M 83.5,33.5 C 84.6737,34.5137 85.3404,35.847 85.5,37.5C 85.5,38.8333 84.8333,39.5 83.5,39.5C 83.5,38.8333 83.1667,38.5 82.5,38.5C 82.1667,37.1667 81.8333,35.8333 81.5,34.5C 81.4088,32.3023 82.0755,31.9689 83.5,33.5 Z"/></g>
<g><path style="opacity:0.792" fill="#353637" d="M 121.5,33.5 C 122.674,34.5137 123.34,35.847 123.5,37.5C 123.5,38.8333 122.833,39.5 121.5,39.5C 121.5,38.8333 121.167,38.5 120.5,38.5C 120.167,37.1667 119.833,35.8333 119.5,34.5C 119.409,32.3023 120.075,31.9689 121.5,33.5 Z"/></g>
<g><path style="opacity:0.788" fill="#303437" d="M 151.5,35.5 C 150.001,35.9599 149.001,37.2933 148.5,39.5C 148.34,41.153 147.674,42.4863 146.5,43.5C 146.5,42.1667 146.5,40.8333 146.5,39.5C 147.128,36.91 148.295,34.5766 150,32.5C 151.039,33.2438 151.539,34.2438 151.5,35.5 Z"/></g>
<g><path style="opacity:0.788" fill="#303437" d="M 193.5,35.5 C 192.001,35.9599 191.001,37.2933 190.5,39.5C 190.34,41.153 189.674,42.4863 188.5,43.5C 188.5,42.1667 188.5,40.8333 188.5,39.5C 189.128,36.91 190.295,34.5766 192,32.5C 193.039,33.2438 193.539,34.2438 193.5,35.5 Z"/></g>
<g><path style="opacity:0.788" fill="#303437" d="M 31.5,36.5 C 30.0008,36.9599 29.0008,38.2933 28.5,40.5C 28.3404,42.153 27.6737,43.4863 26.5,44.5C 26.5,43.1667 26.5,41.8333 26.5,40.5C 27.1283,37.91 28.295,35.5766 30,33.5C 31.0386,34.2438 31.5386,35.2438 31.5,36.5 Z"/></g>
<g><path style="opacity:0.788" fill="#303437" d="M 71.5,36.5 C 70.0008,36.9599 69.0008,38.2933 68.5,40.5C 68.3404,42.153 67.6737,43.4863 66.5,44.5C 66.5,43.1667 66.5,41.8333 66.5,40.5C 67.1283,37.91 68.295,35.5766 70,33.5C 71.0386,34.2438 71.5386,35.2438 71.5,36.5 Z"/></g>
<g><path style="opacity:0.788" fill="#303437" d="M 109.5,36.5 C 108.001,36.9599 107.001,38.2933 106.5,40.5C 106.34,42.153 105.674,43.4863 104.5,44.5C 104.5,43.1667 104.5,41.8333 104.5,40.5C 105.128,37.91 106.295,35.5766 108,33.5C 109.039,34.2438 109.539,35.2438 109.5,36.5 Z"/></g>
<g><path style="opacity:0.804" fill="#3a3b3c" d="M 151.5,35.5 C 152.674,36.5137 153.34,37.847 153.5,39.5C 152.075,37.9689 151.409,38.3023 151.5,40.5C 150.778,40.0825 150.278,39.4158 150,38.5C 149.617,39.056 149.117,39.3893 148.5,39.5C 149.001,37.2933 150.001,35.9599 151.5,35.5 Z"/></g>
<g><path style="opacity:0.38" fill="#2d3339" d="M 156.5,33.5 C 157.167,33.5 157.833,33.5 158.5,33.5C 158.262,35.6449 157.262,37.3115 155.5,38.5C 154.366,36.5615 154.7,34.8948 156.5,33.5 Z"/></g>
<g><path style="opacity:0.804" fill="#3a3b3c" d="M 193.5,35.5 C 194.674,36.5137 195.34,37.847 195.5,39.5C 194.075,37.9689 193.409,38.3023 193.5,40.5C 192.778,40.0825 192.278,39.4158 192,38.5C 191.617,39.056 191.117,39.3893 190.5,39.5C 191.001,37.2933 192.001,35.9599 193.5,35.5 Z"/></g>
<g><path style="opacity:0.38" fill="#2d3339" d="M 198.5,33.5 C 199.167,33.5 199.833,33.5 200.5,33.5C 200.262,35.6449 199.262,37.3115 197.5,38.5C 196.366,36.5615 196.7,34.8948 198.5,33.5 Z"/></g>
<g><path style="opacity:0.804" fill="#3a3b3c" d="M 31.5,36.5 C 32.6737,37.5137 33.3404,38.847 33.5,40.5C 32.0755,38.9689 31.4088,39.3023 31.5,41.5C 30.7784,41.0825 30.2784,40.4158 30,39.5C 29.6174,40.056 29.1174,40.3893 28.5,40.5C 29.0008,38.2933 30.0008,36.9599 31.5,36.5 Z"/></g>
<g><path style="opacity:0.38" fill="#2d3339" d="M 36.5,34.5 C 37.1667,34.5 37.8333,34.5 38.5,34.5C 38.2623,36.6449 37.2623,38.3115 35.5,39.5C 34.3664,37.5615 34.6997,35.8948 36.5,34.5 Z"/></g>
<g><path style="opacity:0.804" fill="#3a3b3c" d="M 71.5,36.5 C 72.6737,37.5137 73.3404,38.847 73.5,40.5C 72.0755,38.9689 71.4088,39.3023 71.5,41.5C 70.7784,41.0825 70.2784,40.4158 70,39.5C 69.6174,40.056 69.1174,40.3893 68.5,40.5C 69.0008,38.2933 70.0008,36.9599 71.5,36.5 Z"/></g>
<g><path style="opacity:0.38" fill="#2d3339" d="M 76.5,34.5 C 77.1667,34.5 77.8333,34.5 78.5,34.5C 78.2623,36.6449 77.2623,38.3115 75.5,39.5C 74.3664,37.5615 74.6997,35.8948 76.5,34.5 Z"/></g>
<g><path style="opacity:0.804" fill="#3a3b3c" d="M 109.5,36.5 C 110.674,37.5137 111.34,38.847 111.5,40.5C 110.075,38.9689 109.409,39.3023 109.5,41.5C 108.778,41.0825 108.278,40.4158 108,39.5C 107.617,40.056 107.117,40.3893 106.5,40.5C 107.001,38.2933 108.001,36.9599 109.5,36.5 Z"/></g>
<g><path style="opacity:0.38" fill="#2d3339" d="M 114.5,34.5 C 115.167,34.5 115.833,34.5 116.5,34.5C 116.262,36.6449 115.262,38.3115 113.5,39.5C 112.366,37.5615 112.7,35.8948 114.5,34.5 Z"/></g>
<g><path style="opacity:0.798" fill="#3c3d3e" d="M 165.5,36.5 C 166.674,37.5137 167.34,38.847 167.5,40.5C 166.075,38.9689 165.409,39.3023 165.5,41.5C 164.599,40.7095 163.932,39.7095 163.5,38.5C 164.833,38.5 165.5,37.8333 165.5,36.5 Z"/></g>
<g><path style="opacity:0.798" fill="#3c3d3e" d="M 207.5,36.5 C 208.674,37.5137 209.34,38.847 209.5,40.5C 208.075,38.9689 207.409,39.3023 207.5,41.5C 206.599,40.7095 205.932,39.7095 205.5,38.5C 206.833,38.5 207.5,37.8333 207.5,36.5 Z"/></g>
<g><path style="opacity:0.798" fill="#3c3d3e" d="M 45.5,37.5 C 46.6737,38.5137 47.3404,39.847 47.5,41.5C 46.0755,39.9689 45.4088,40.3023 45.5,42.5C 44.5987,41.7095 43.9321,40.7095 43.5,39.5C 44.8333,39.5 45.5,38.8333 45.5,37.5 Z"/></g>
<g><path style="opacity:0.798" fill="#3c3d3e" d="M 85.5,37.5 C 86.6737,38.5137 87.3404,39.847 87.5,41.5C 86.0755,39.9689 85.4088,40.3023 85.5,42.5C 84.5987,41.7095 83.9321,40.7095 83.5,39.5C 84.8333,39.5 85.5,38.8333 85.5,37.5 Z"/></g>
<g><path style="opacity:0.798" fill="#3c3d3e" d="M 123.5,37.5 C 124.674,38.5137 125.34,39.847 125.5,41.5C 124.075,39.9689 123.409,40.3023 123.5,42.5C 122.599,41.7095 121.932,40.7095 121.5,39.5C 122.833,39.5 123.5,38.8333 123.5,37.5 Z"/></g>
<g><path style="opacity:0.682" fill="#37383a" d="M 162.5,37.5 C 162.405,39.7857 161.738,41.7857 160.5,43.5C 160.5,41.8333 160.5,40.1667 160.5,38.5C 160.842,37.6618 161.508,37.3284 162.5,37.5 Z"/></g>
<g><path style="opacity:0.796" fill="#38393a" d="M 167.5,40.5 C 168.674,41.5137 169.34,42.847 169.5,44.5C 168.883,44.3893 168.383,44.056 168,43.5C 165.894,45.291 163.394,45.9577 160.5,45.5C 160.167,45.5 159.833,45.5 159.5,45.5C 159.5,45.1667 159.5,44.8333 159.5,44.5C 159.833,44.5 160.167,44.5 160.5,44.5C 162.527,44.6621 164.527,44.4955 166.5,44C 165.748,43.3292 165.414,42.4959 165.5,41.5C 165.409,39.3023 166.075,38.9689 167.5,40.5 Z"/></g>
<g><path style="opacity:0.682" fill="#37383a" d="M 204.5,37.5 C 204.405,39.7857 203.738,41.7857 202.5,43.5C 202.5,41.8333 202.5,40.1667 202.5,38.5C 202.842,37.6618 203.508,37.3284 204.5,37.5 Z"/></g>
<g><path style="opacity:0.796" fill="#38393a" d="M 209.5,40.5 C 210.674,41.5137 211.34,42.847 211.5,44.5C 210.883,44.3893 210.383,44.056 210,43.5C 207.894,45.291 205.394,45.9577 202.5,45.5C 202.167,45.5 201.833,45.5 201.5,45.5C 201.5,45.1667 201.5,44.8333 201.5,44.5C 201.833,44.5 202.167,44.5 202.5,44.5C 204.527,44.6621 206.527,44.4955 208.5,44C 207.748,43.3292 207.414,42.4959 207.5,41.5C 207.409,39.3023 208.075,38.9689 209.5,40.5 Z"/></g>
<g><path style="opacity:0.682" fill="#37383a" d="M 42.5,38.5 C 42.405,40.7857 41.7384,42.7857 40.5,44.5C 40.5,42.8333 40.5,41.1667 40.5,39.5C 40.8417,38.6618 41.5084,38.3284 42.5,38.5 Z"/></g>
<g><path style="opacity:0.796" fill="#38393a" d="M 47.5,41.5 C 48.6737,42.5137 49.3404,43.847 49.5,45.5C 48.8826,45.3893 48.3826,45.056 48,44.5C 45.8938,46.291 43.3938,46.9577 40.5,46.5C 40.1667,46.5 39.8333,46.5 39.5,46.5C 39.5,46.1667 39.5,45.8333 39.5,45.5C 39.8333,45.5 40.1667,45.5 40.5,45.5C 42.5273,45.6621 44.5273,45.4955 46.5,45C 45.7476,44.3292 45.4142,43.4959 45.5,42.5C 45.4088,40.3023 46.0755,39.9689 47.5,41.5 Z"/></g>
<g><path style="opacity:0.682" fill="#37383a" d="M 82.5,38.5 C 82.405,40.7857 81.7384,42.7857 80.5,44.5C 80.5,42.8333 80.5,41.1667 80.5,39.5C 80.8417,38.6618 81.5084,38.3284 82.5,38.5 Z"/></g>
<g><path style="opacity:0.796" fill="#38393a" d="M 87.5,41.5 C 88.6737,42.5137 89.3404,43.847 89.5,45.5C 88.8826,45.3893 88.3826,45.056 88,44.5C 85.8938,46.291 83.3938,46.9577 80.5,46.5C 80.1667,46.5 79.8333,46.5 79.5,46.5C 79.5,46.1667 79.5,45.8333 79.5,45.5C 79.8333,45.5 80.1667,45.5 80.5,45.5C 82.5273,45.6621 84.5273,45.4955 86.5,45C 85.7476,44.3292 85.4142,43.4959 85.5,42.5C 85.4088,40.3023 86.0755,39.9689 87.5,41.5 Z"/></g>
<g><path style="opacity:0.682" fill="#37383a" d="M 120.5,38.5 C 120.405,40.7857 119.738,42.7857 118.5,44.5C 118.5,42.8333 118.5,41.1667 118.5,39.5C 118.842,38.6618 119.508,38.3284 120.5,38.5 Z"/></g>
<g><path style="opacity:0.796" fill="#38393a" d="M 125.5,41.5 C 126.674,42.5137 127.34,43.847 127.5,45.5C 126.883,45.3893 126.383,45.056 126,44.5C 123.894,46.291 121.394,46.9577 118.5,46.5C 118.167,46.5 117.833,46.5 117.5,46.5C 117.5,46.1667 117.5,45.8333 117.5,45.5C 117.833,45.5 118.167,45.5 118.5,45.5C 120.527,45.6621 122.527,45.4955 124.5,45C 123.748,44.3292 123.414,43.4959 123.5,42.5C 123.409,40.3023 124.075,39.9689 125.5,41.5 Z"/></g>
<g><path style="opacity:0.857" fill="#2c353d" d="M 146.5,39.5 C 146.5,40.8333 146.5,42.1667 146.5,43.5C 146.5,43.8333 146.5,44.1667 146.5,44.5C 146.167,44.5 145.833,44.5 145.5,44.5C 144.662,44.8417 144.328,45.5084 144.5,46.5C 144.5,46.8333 144.5,47.1667 144.5,47.5C 143.624,47.6309 142.957,47.2975 142.5,46.5C 143.929,44.1074 145.263,41.7741 146.5,39.5 Z"/></g>
<g><path style="opacity:0.798" fill="#373739" d="M 153.5,39.5 C 154.674,40.5137 155.34,41.847 155.5,43.5C 154.075,41.9689 153.409,42.3023 153.5,44.5C 153.167,44.5 152.833,44.5 152.5,44.5C 152.167,43.1667 151.833,41.8333 151.5,40.5C 151.409,38.3023 152.075,37.9689 153.5,39.5 Z"/></g>
<g><path style="opacity:0.973" fill="#2b3239" d="M 160.5,38.5 C 160.5,40.1667 160.5,41.8333 160.5,43.5C 160.5,43.8333 160.5,44.1667 160.5,44.5C 160.167,44.5 159.833,44.5 159.5,44.5C 159.672,43.5084 159.338,42.8417 158.5,42.5C 158.66,40.847 159.326,39.5137 160.5,38.5 Z"/></g>
<g><path style="opacity:0.857" fill="#2c353d" d="M 188.5,39.5 C 188.5,40.8333 188.5,42.1667 188.5,43.5C 188.5,43.8333 188.5,44.1667 188.5,44.5C 188.167,44.5 187.833,44.5 187.5,44.5C 186.662,44.8417 186.328,45.5084 186.5,46.5C 186.5,46.8333 186.5,47.1667 186.5,47.5C 185.624,47.6309 184.957,47.2975 184.5,46.5C 185.929,44.1074 187.263,41.7741 188.5,39.5 Z"/></g>
<g><path style="opacity:0.798" fill="#373739" d="M 195.5,39.5 C 196.674,40.5137 197.34,41.847 197.5,43.5C 196.075,41.9689 195.409,42.3023 195.5,44.5C 195.167,44.5 194.833,44.5 194.5,44.5C 194.167,43.1667 193.833,41.8333 193.5,40.5C 193.409,38.3023 194.075,37.9689 195.5,39.5 Z"/></g>
<g><path style="opacity:0.973" fill="#2b3239" d="M 202.5,38.5 C 202.5,40.1667 202.5,41.8333 202.5,43.5C 202.5,43.8333 202.5,44.1667 202.5,44.5C 202.167,44.5 201.833,44.5 201.5,44.5C 201.672,43.5084 201.338,42.8417 200.5,42.5C 200.66,40.847 201.326,39.5137 202.5,38.5 Z"/></g>
<g><path style="opacity:0.857" fill="#2c353d" d="M 26.5,40.5 C 26.5,41.8333 26.5,43.1667 26.5,44.5C 26.5,44.8333 26.5,45.1667 26.5,45.5C 26.1667,45.5 25.8333,45.5 25.5,45.5C 24.6618,45.8417 24.3284,46.5084 24.5,47.5C 24.5,47.8333 24.5,48.1667 24.5,48.5C 23.6236,48.6309 22.9569,48.2975 22.5,47.5C 23.9295,45.1074 25.2628,42.7741 26.5,40.5 Z"/></g>
<g><path style="opacity:0.798" fill="#373739" d="M 33.5,40.5 C 34.6737,41.5137 35.3404,42.847 35.5,44.5C 34.0755,42.9689 33.4088,43.3023 33.5,45.5C 33.1667,45.5 32.8333,45.5 32.5,45.5C 32.1667,44.1667 31.8333,42.8333 31.5,41.5C 31.4088,39.3023 32.0755,38.9689 33.5,40.5 Z"/></g>
<g><path style="opacity:0.973" fill="#2b3239" d="M 40.5,39.5 C 40.5,41.1667 40.5,42.8333 40.5,44.5C 40.5,44.8333 40.5,45.1667 40.5,45.5C 40.1667,45.5 39.8333,45.5 39.5,45.5C 39.6716,44.5084 39.3382,43.8417 38.5,43.5C 38.6596,41.847 39.3263,40.5137 40.5,39.5 Z"/></g>
<g><path style="opacity:0.857" fill="#2c353d" d="M 66.5,40.5 C 66.5,41.8333 66.5,43.1667 66.5,44.5C 66.5,44.8333 66.5,45.1667 66.5,45.5C 66.1667,45.5 65.8333,45.5 65.5,45.5C 64.6618,45.8417 64.3284,46.5084 64.5,47.5C 64.5,47.8333 64.5,48.1667 64.5,48.5C 63.6236,48.6309 62.9569,48.2975 62.5,47.5C 63.9295,45.1074 65.2628,42.7741 66.5,40.5 Z"/></g>
<g><path style="opacity:0.798" fill="#373739" d="M 73.5,40.5 C 74.6737,41.5137 75.3404,42.847 75.5,44.5C 74.0755,42.9689 73.4088,43.3023 73.5,45.5C 73.1667,45.5 72.8333,45.5 72.5,45.5C 72.1667,44.1667 71.8333,42.8333 71.5,41.5C 71.4088,39.3023 72.0755,38.9689 73.5,40.5 Z"/></g>
<g><path style="opacity:0.973" fill="#2b3239" d="M 80.5,39.5 C 80.5,41.1667 80.5,42.8333 80.5,44.5C 80.5,44.8333 80.5,45.1667 80.5,45.5C 80.1667,45.5 79.8333,45.5 79.5,45.5C 79.6716,44.5084 79.3382,43.8417 78.5,43.5C 78.6596,41.847 79.3263,40.5137 80.5,39.5 Z"/></g>
<g><path style="opacity:0.857" fill="#2c353d" d="M 104.5,40.5 C 104.5,41.8333 104.5,43.1667 104.5,44.5C 104.5,44.8333 104.5,45.1667 104.5,45.5C 104.167,45.5 103.833,45.5 103.5,45.5C 102.662,45.8417 102.328,46.5084 102.5,47.5C 102.5,47.8333 102.5,48.1667 102.5,48.5C 101.624,48.6309 100.957,48.2975 100.5,47.5C 101.929,45.1074 103.263,42.7741 104.5,40.5 Z"/></g>
<g><path style="opacity:0.798" fill="#373739" d="M 111.5,40.5 C 112.674,41.5137 113.34,42.847 113.5,44.5C 112.075,42.9689 111.409,43.3023 111.5,45.5C 111.167,45.5 110.833,45.5 110.5,45.5C 110.167,44.1667 109.833,42.8333 109.5,41.5C 109.409,39.3023 110.075,38.9689 111.5,40.5 Z"/></g>
<g><path style="opacity:0.973" fill="#2b3239" d="M 118.5,39.5 C 118.5,41.1667 118.5,42.8333 118.5,44.5C 118.5,44.8333 118.5,45.1667 118.5,45.5C 118.167,45.5 117.833,45.5 117.5,45.5C 117.672,44.5084 117.338,43.8417 116.5,43.5C 116.66,41.847 117.326,40.5137 118.5,39.5 Z"/></g>
<g><path style="opacity:0.788" fill="#373739" d="M 155.5,43.5 C 156.167,43.5 156.5,43.8333 156.5,44.5C 156.5,44.8333 156.5,45.1667 156.5,45.5C 155.075,43.9689 154.409,44.3023 154.5,46.5C 153.662,46.1583 153.328,45.4916 153.5,44.5C 153.409,42.3023 154.075,41.9689 155.5,43.5 Z"/></g>
<g><path style="opacity:0.969" fill="#30363c" d="M 158.5,42.5 C 159.338,42.8417 159.672,43.5084 159.5,44.5C 159.5,44.8333 159.5,45.1667 159.5,45.5C 159.672,46.4916 159.338,47.1583 158.5,47.5C 157.833,46.8333 157.167,46.1667 156.5,45.5C 156.5,45.1667 156.5,44.8333 156.5,44.5C 157.167,43.8333 157.833,43.1667 158.5,42.5 Z"/></g>
<g><path style="opacity:0.788" fill="#373739" d="M 197.5,43.5 C 198.167,43.5 198.5,43.8333 198.5,44.5C 198.5,44.8333 198.5,45.1667 198.5,45.5C 197.075,43.9689 196.409,44.3023 196.5,46.5C 195.662,46.1583 195.328,45.4916 195.5,44.5C 195.409,42.3023 196.075,41.9689 197.5,43.5 Z"/></g>
<g><path style="opacity:0.969" fill="#30363c" d="M 200.5,42.5 C 201.338,42.8417 201.672,43.5084 201.5,44.5C 201.5,44.8333 201.5,45.1667 201.5,45.5C 201.672,46.4916 201.338,47.1583 200.5,47.5C 199.833,46.8333 199.167,46.1667 198.5,45.5C 198.5,45.1667 198.5,44.8333 198.5,44.5C 199.167,43.8333 199.833,43.1667 200.5,42.5 Z"/></g>
<g><path style="opacity:0.788" fill="#373739" d="M 35.5,44.5 C 36.1667,44.5 36.5,44.8333 36.5,45.5C 36.5,45.8333 36.5,46.1667 36.5,46.5C 35.0755,44.9689 34.4088,45.3023 34.5,47.5C 33.6618,47.1583 33.3284,46.4916 33.5,45.5C 33.4088,43.3023 34.0755,42.9689 35.5,44.5 Z"/></g>
<g><path style="opacity:0.969" fill="#30363c" d="M 38.5,43.5 C 39.3382,43.8417 39.6716,44.5084 39.5,45.5C 39.5,45.8333 39.5,46.1667 39.5,46.5C 39.6716,47.4916 39.3382,48.1583 38.5,48.5C 37.8333,47.8333 37.1667,47.1667 36.5,46.5C 36.5,46.1667 36.5,45.8333 36.5,45.5C 37.1667,44.8333 37.8333,44.1667 38.5,43.5 Z"/></g>
<g><path style="opacity:0.788" fill="#373739" d="M 75.5,44.5 C 76.1667,44.5 76.5,44.8333 76.5,45.5C 76.5,45.8333 76.5,46.1667 76.5,46.5C 75.0755,44.9689 74.4088,45.3023 74.5,47.5C 73.6618,47.1583 73.3284,46.4916 73.5,45.5C 73.4088,43.3023 74.0755,42.9689 75.5,44.5 Z"/></g>
<g><path style="opacity:0.969" fill="#30363c" d="M 78.5,43.5 C 79.3382,43.8417 79.6716,44.5084 79.5,45.5C 79.5,45.8333 79.5,46.1667 79.5,46.5C 79.6716,47.4916 79.3382,48.1583 78.5,48.5C 77.8333,47.8333 77.1667,47.1667 76.5,46.5C 76.5,46.1667 76.5,45.8333 76.5,45.5C 77.1667,44.8333 77.8333,44.1667 78.5,43.5 Z"/></g>
<g><path style="opacity:0.788" fill="#373739" d="M 113.5,44.5 C 114.167,44.5 114.5,44.8333 114.5,45.5C 114.5,45.8333 114.5,46.1667 114.5,46.5C 113.075,44.9689 112.409,45.3023 112.5,47.5C 111.662,47.1583 111.328,46.4916 111.5,45.5C 111.409,43.3023 112.075,42.9689 113.5,44.5 Z"/></g>
<g><path style="opacity:0.969" fill="#30363c" d="M 116.5,43.5 C 117.338,43.8417 117.672,44.5084 117.5,45.5C 117.5,45.8333 117.5,46.1667 117.5,46.5C 117.672,47.4916 117.338,48.1583 116.5,48.5C 115.833,47.8333 115.167,47.1667 114.5,46.5C 114.5,46.1667 114.5,45.8333 114.5,45.5C 115.167,44.8333 115.833,44.1667 116.5,43.5 Z"/></g>
<g><path style="opacity:0.118" fill="#393a3b" d="M 145.5,44.5 C 145.833,44.5 146.167,44.5 146.5,44.5C 148.5,44.5 150.5,44.5 152.5,44.5C 152.5,45.5 152.5,46.5 152.5,47.5C 149.833,47.5 147.167,47.5 144.5,47.5C 144.5,47.1667 144.5,46.8333 144.5,46.5C 146.857,46.6633 149.19,46.4966 151.5,46C 149.292,45.8091 147.292,45.3091 145.5,44.5 Z"/></g>
<g><path style="opacity:0.118" fill="#393a3b" d="M 187.5,44.5 C 187.833,44.5 188.167,44.5 188.5,44.5C 190.5,44.5 192.5,44.5 194.5,44.5C 194.5,45.5 194.5,46.5 194.5,47.5C 191.833,47.5 189.167,47.5 186.5,47.5C 186.5,47.1667 186.5,46.8333 186.5,46.5C 188.857,46.6633 191.19,46.4966 193.5,46C 191.292,45.8091 189.292,45.3091 187.5,44.5 Z"/></g>
<g><path style="opacity:0.118" fill="#393a3b" d="M 25.5,45.5 C 25.8333,45.5 26.1667,45.5 26.5,45.5C 28.5,45.5 30.5,45.5 32.5,45.5C 32.5,46.5 32.5,47.5 32.5,48.5C 29.8333,48.5 27.1667,48.5 24.5,48.5C 24.5,48.1667 24.5,47.8333 24.5,47.5C 26.8568,47.6633 29.1902,47.4966 31.5,47C 29.2922,46.8091 27.2922,46.3091 25.5,45.5 Z"/></g>
<g><path style="opacity:0.118" fill="#393a3b" d="M 65.5,45.5 C 65.8333,45.5 66.1667,45.5 66.5,45.5C 68.5,45.5 70.5,45.5 72.5,45.5C 72.5,46.5 72.5,47.5 72.5,48.5C 69.8333,48.5 67.1667,48.5 64.5,48.5C 64.5,48.1667 64.5,47.8333 64.5,47.5C 66.8568,47.6633 69.1902,47.4966 71.5,47C 69.2922,46.8091 67.2922,46.3091 65.5,45.5 Z"/></g>
<g><path style="opacity:0.118" fill="#393a3b" d="M 103.5,45.5 C 103.833,45.5 104.167,45.5 104.5,45.5C 106.5,45.5 108.5,45.5 110.5,45.5C 110.5,46.5 110.5,47.5 110.5,48.5C 107.833,48.5 105.167,48.5 102.5,48.5C 102.5,48.1667 102.5,47.8333 102.5,47.5C 104.857,47.6633 107.19,47.4966 109.5,47C 107.292,46.8091 105.292,46.3091 103.5,45.5 Z"/></g>
<g><path style="opacity:0.987" fill="#2c2d2f" d="M 145.5,44.5 C 147.292,45.3091 149.292,45.8091 151.5,46C 149.19,46.4966 146.857,46.6633 144.5,46.5C 144.328,45.5084 144.662,44.8417 145.5,44.5 Z"/></g>
<g><path style="opacity:0.988" fill="#2c2e31" d="M 169.5,44.5 C 167.365,46.369 164.698,47.0356 161.5,46.5C 160.833,46.5 160.5,46.1667 160.5,45.5C 163.394,45.9577 165.894,45.291 168,43.5C 168.383,44.056 168.883,44.3893 169.5,44.5 Z"/></g>
<g><path style="opacity:0.987" fill="#2c2d2f" d="M 187.5,44.5 C 189.292,45.3091 191.292,45.8091 193.5,46C 191.19,46.4966 188.857,46.6633 186.5,46.5C 186.328,45.5084 186.662,44.8417 187.5,44.5 Z"/></g>
<g><path style="opacity:0.988" fill="#2c2e31" d="M 211.5,44.5 C 209.365,46.369 206.698,47.0356 203.5,46.5C 202.833,46.5 202.5,46.1667 202.5,45.5C 205.394,45.9577 207.894,45.291 210,43.5C 210.383,44.056 210.883,44.3893 211.5,44.5 Z"/></g>
<g><path style="opacity:0.987" fill="#2c2d2f" d="M 25.5,45.5 C 27.2922,46.3091 29.2922,46.8091 31.5,47C 29.1902,47.4966 26.8568,47.6633 24.5,47.5C 24.3284,46.5084 24.6618,45.8417 25.5,45.5 Z"/></g>
<g><path style="opacity:0.988" fill="#2c2e31" d="M 49.5,45.5 C 47.3647,47.369 44.6981,48.0356 41.5,47.5C 40.8333,47.5 40.5,47.1667 40.5,46.5C 43.3938,46.9577 45.8938,46.291 48,44.5C 48.3826,45.056 48.8826,45.3893 49.5,45.5 Z"/></g>
<g><path style="opacity:0.987" fill="#2c2d2f" d="M 65.5,45.5 C 67.2922,46.3091 69.2922,46.8091 71.5,47C 69.1902,47.4966 66.8568,47.6633 64.5,47.5C 64.3284,46.5084 64.6618,45.8417 65.5,45.5 Z"/></g>
<g><path style="opacity:0.988" fill="#2c2e31" d="M 89.5,45.5 C 87.3647,47.369 84.6981,48.0356 81.5,47.5C 80.8333,47.5 80.5,47.1667 80.5,46.5C 83.3938,46.9577 85.8938,46.291 88,44.5C 88.3826,45.056 88.8826,45.3893 89.5,45.5 Z"/></g>
<g><path style="opacity:0.987" fill="#2c2d2f" d="M 103.5,45.5 C 105.292,46.3091 107.292,46.8091 109.5,47C 107.19,47.4966 104.857,47.6633 102.5,47.5C 102.328,46.5084 102.662,45.8417 103.5,45.5 Z"/></g>
<g><path style="opacity:0.988" fill="#2c2e31" d="M 127.5,45.5 C 125.365,47.369 122.698,48.0356 119.5,47.5C 118.833,47.5 118.5,47.1667 118.5,46.5C 121.394,46.9577 123.894,46.291 126,44.5C 126.383,45.056 126.883,45.3893 127.5,45.5 Z"/></g>
<g><path style="opacity:0.929" fill="#323335" d="M 156.5,45.5 C 157.167,46.1667 157.833,46.8333 158.5,47.5C 156.649,51.3866 155.316,51.0532 154.5,46.5C 154.409,44.3023 155.075,43.9689 156.5,45.5 Z"/></g>
<g><path style="opacity:0.314" fill="#393a3c" d="M 169.5,44.5 C 170.404,45.209 170.737,46.209 170.5,47.5C 167.287,47.81 164.287,47.4767 161.5,46.5C 164.698,47.0356 167.365,46.369 169.5,44.5 Z"/></g>
<g><path style="opacity:0.929" fill="#323335" d="M 198.5,45.5 C 199.167,46.1667 199.833,46.8333 200.5,47.5C 198.649,51.3866 197.316,51.0532 196.5,46.5C 196.409,44.3023 197.075,43.9689 198.5,45.5 Z"/></g>
<g><path style="opacity:0.314" fill="#393a3c" d="M 211.5,44.5 C 211.833,44.5 212.167,44.5 212.5,44.5C 212.5,45.5 212.5,46.5 212.5,47.5C 209.287,47.81 206.287,47.4767 203.5,46.5C 206.698,47.0356 209.365,46.369 211.5,44.5 Z"/></g>
<g><path style="opacity:0.929" fill="#323335" d="M 36.5,46.5 C 37.1667,47.1667 37.8333,47.8333 38.5,48.5C 36.6491,52.3866 35.3157,52.0532 34.5,47.5C 34.4088,45.3023 35.0755,44.9689 36.5,46.5 Z"/></g>
<g><path style="opacity:0.314" fill="#393a3c" d="M 49.5,45.5 C 50.404,46.209 50.7373,47.209 50.5,48.5C 47.2869,48.81 44.2869,48.4767 41.5,47.5C 44.6981,48.0356 47.3647,47.369 49.5,45.5 Z"/></g>
<g><path style="opacity:0.929" fill="#323335" d="M 76.5,46.5 C 77.1667,47.1667 77.8333,47.8333 78.5,48.5C 76.6491,52.3866 75.3157,52.0532 74.5,47.5C 74.4088,45.3023 75.0755,44.9689 76.5,46.5 Z"/></g>
<g><path style="opacity:0.314" fill="#393a3c" d="M 89.5,45.5 C 90.404,46.209 90.7373,47.209 90.5,48.5C 87.2869,48.81 84.2869,48.4767 81.5,47.5C 84.6981,48.0356 87.3647,47.369 89.5,45.5 Z"/></g>
<g><path style="opacity:0.929" fill="#323335" d="M 114.5,46.5 C 115.167,47.1667 115.833,47.8333 116.5,48.5C 114.649,52.3866 113.316,52.0532 112.5,47.5C 112.409,45.3023 113.075,44.9689 114.5,46.5 Z"/></g>
<g><path style="opacity:0.314" fill="#393a3c" d="M 127.5,45.5 C 128.404,46.209 128.737,47.209 128.5,48.5C 125.287,48.81 122.287,48.4767 119.5,47.5C 122.698,48.0356 125.365,47.369 127.5,45.5 Z"/></g>
<g><path style="opacity:0.984" fill="#323437" d="M 138.5,53.5 C 138.5,54.8333 137.833,55.5 136.5,55.5C 136.5,54.5 136.5,53.5 136.5,52.5C 137.301,50.2071 137.968,50.5404 138.5,53.5 Z"/></g>
<g><path style="opacity:0.984" fill="#323437" d="M 180.5,53.5 C 180.5,54.8333 179.833,55.5 178.5,55.5C 178.5,54.5 178.5,53.5 178.5,52.5C 179.301,50.2071 179.968,50.5404 180.5,53.5 Z"/></g>
<g><path style="opacity:0.984" fill="#323437" d="M 18.5,54.5 C 18.5,55.8333 17.8333,56.5 16.5,56.5C 16.5,55.5 16.5,54.5 16.5,53.5C 17.3013,51.2071 17.968,51.5404 18.5,54.5 Z"/></g>
<g><path style="opacity:0.984" fill="#323437" d="M 58.5,54.5 C 58.5,55.8333 57.8333,56.5 56.5,56.5C 56.5,55.5 56.5,54.5 56.5,53.5C 57.3013,51.2071 57.968,51.5404 58.5,54.5 Z"/></g>
<g><path style="opacity:0.984" fill="#323437" d="M 96.5,54.5 C 96.5,55.8333 95.8333,56.5 94.5,56.5C 94.5,55.5 94.5,54.5 94.5,53.5C 95.3013,51.2071 95.968,51.5404 96.5,54.5 Z"/></g>
<g><path style="opacity:0.796" fill="#3b3b3d" d="M 138.5,53.5 C 139.674,54.5137 140.34,55.847 140.5,57.5C 139.075,55.9689 138.409,56.3023 138.5,58.5C 137.778,58.0825 137.278,57.4158 137,56.5C 136.722,57.4158 136.222,58.0825 135.5,58.5C 135.263,57.209 135.596,56.209 136.5,55.5C 137.833,55.5 138.5,54.8333 138.5,53.5 Z"/></g>
<g><path style="opacity:0.796" fill="#3b3b3d" d="M 180.5,53.5 C 181.674,54.5137 182.34,55.847 182.5,57.5C 181.075,55.9689 180.409,56.3023 180.5,58.5C 179.778,58.0825 179.278,57.4158 179,56.5C 178.722,57.4158 178.222,58.0825 177.5,58.5C 177.263,57.209 177.596,56.209 178.5,55.5C 179.833,55.5 180.5,54.8333 180.5,53.5 Z"/></g>
<g><path style="opacity:0.796" fill="#3b3b3d" d="M 18.5,54.5 C 19.6737,55.5137 20.3404,56.847 20.5,58.5C 19.0755,56.9689 18.4088,57.3023 18.5,59.5C 17.7784,59.0825 17.2784,58.4158 17,57.5C 16.7216,58.4158 16.2216,59.0825 15.5,59.5C 15.2627,58.209 15.596,57.209 16.5,56.5C 17.8333,56.5 18.5,55.8333 18.5,54.5 Z"/></g>
<g><path style="opacity:0.796" fill="#3b3b3d" d="M 58.5,54.5 C 59.6737,55.5137 60.3404,56.847 60.5,58.5C 59.0755,56.9689 58.4088,57.3023 58.5,59.5C 57.7784,59.0825 57.2784,58.4158 57,57.5C 56.7216,58.4158 56.2216,59.0825 55.5,59.5C 55.2627,58.209 55.596,57.209 56.5,56.5C 57.8333,56.5 58.5,55.8333 58.5,54.5 Z"/></g>
<g><path style="opacity:0.796" fill="#3b3b3d" d="M 96.5,54.5 C 97.6737,55.5137 98.3404,56.847 98.5,58.5C 97.0755,56.9689 96.4088,57.3023 96.5,59.5C 95.7784,59.0825 95.2784,58.4158 95,57.5C 94.7216,58.4158 94.2216,59.0825 93.5,59.5C 93.2627,58.209 93.596,57.209 94.5,56.5C 95.8333,56.5 96.5,55.8333 96.5,54.5 Z"/></g>
<g><path style="opacity:0.851" fill="#292f37" d="M 136.5,52.5 C 136.5,53.5 136.5,54.5 136.5,55.5C 135.596,56.209 135.263,57.209 135.5,58.5C 134.833,58.5 134.167,58.5 133.5,58.5C 133.992,56.1815 134.992,54.1815 136.5,52.5 Z"/></g>
<g><path style="opacity:0.851" fill="#292f37" d="M 178.5,52.5 C 178.5,53.5 178.5,54.5 178.5,55.5C 177.596,56.209 177.263,57.209 177.5,58.5C 176.833,58.5 176.167,58.5 175.5,58.5C 175.992,56.1815 176.992,54.1815 178.5,52.5 Z"/></g>
<g><path style="opacity:0.851" fill="#292f37" d="M 16.5,53.5 C 16.5,54.5 16.5,55.5 16.5,56.5C 15.596,57.209 15.2627,58.209 15.5,59.5C 14.8333,59.5 14.1667,59.5 13.5,59.5C 13.9925,57.1815 14.9925,55.1815 16.5,53.5 Z"/></g>
<g><path style="opacity:0.851" fill="#292f37" d="M 56.5,53.5 C 56.5,54.5 56.5,55.5 56.5,56.5C 55.596,57.209 55.2627,58.209 55.5,59.5C 54.8333,59.5 54.1667,59.5 53.5,59.5C 53.9925,57.1815 54.9925,55.1815 56.5,53.5 Z"/></g>
<g><path style="opacity:0.851" fill="#292f37" d="M 94.5,53.5 C 94.5,54.5 94.5,55.5 94.5,56.5C 93.596,57.209 93.2627,58.209 93.5,59.5C 92.8333,59.5 92.1667,59.5 91.5,59.5C 91.9925,57.1815 92.9925,55.1815 94.5,53.5 Z"/></g>
<g><path style="opacity:0.792" fill="#353637" d="M 140.5,57.5 C 141.674,58.5137 142.34,59.847 142.5,61.5C 142.5,62.8333 141.833,63.5 140.5,63.5C 140.5,62.8333 140.167,62.5 139.5,62.5C 139.167,61.1667 138.833,59.8333 138.5,58.5C 138.409,56.3023 139.075,55.9689 140.5,57.5 Z"/></g>
<g><path style="opacity:0.792" fill="#353637" d="M 182.5,57.5 C 183.674,58.5137 184.34,59.847 184.5,61.5C 184.5,62.8333 183.833,63.5 182.5,63.5C 182.5,62.8333 182.167,62.5 181.5,62.5C 181.167,61.1667 180.833,59.8333 180.5,58.5C 180.409,56.3023 181.075,55.9689 182.5,57.5 Z"/></g>
<g><path style="opacity:0.792" fill="#353637" d="M 20.5,58.5 C 21.6737,59.5137 22.3404,60.847 22.5,62.5C 22.5,63.8333 21.8333,64.5 20.5,64.5C 20.5,63.8333 20.1667,63.5 19.5,63.5C 19.1667,62.1667 18.8333,60.8333 18.5,59.5C 18.4088,57.3023 19.0755,56.9689 20.5,58.5 Z"/></g>
<g><path style="opacity:0.792" fill="#353637" d="M 60.5,58.5 C 61.6737,59.5137 62.3404,60.847 62.5,62.5C 62.5,63.8333 61.8333,64.5 60.5,64.5C 60.5,63.8333 60.1667,63.5 59.5,63.5C 59.1667,62.1667 58.8333,60.8333 58.5,59.5C 58.4088,57.3023 59.0755,56.9689 60.5,58.5 Z"/></g>
<g><path style="opacity:0.792" fill="#353637" d="M 98.5,58.5 C 99.6737,59.5137 100.34,60.847 100.5,62.5C 100.5,63.8333 99.8333,64.5 98.5,64.5C 98.5,63.8333 98.1667,63.5 97.5,63.5C 97.1667,62.1667 96.8333,60.8333 96.5,59.5C 96.4088,57.3023 97.0755,56.9689 98.5,58.5 Z"/></g>
<g><path style="opacity:0.788" fill="#303437" d="M 128.5,60.5 C 127.001,60.9599 126.001,62.2933 125.5,64.5C 125.34,66.153 124.674,67.4863 123.5,68.5C 123.5,67.1667 123.5,65.8333 123.5,64.5C 124.128,61.91 125.295,59.5766 127,57.5C 128.039,58.2438 128.539,59.2438 128.5,60.5 Z"/></g>
<g><path style="opacity:0.788" fill="#303437" d="M 170.5,60.5 C 169.001,60.9599 168.001,62.2933 167.5,64.5C 167.34,66.153 166.674,67.4863 165.5,68.5C 165.5,67.1667 165.5,65.8333 165.5,64.5C 166.128,61.91 167.295,59.5766 169,57.5C 170.039,58.2438 170.539,59.2438 170.5,60.5 Z"/></g>
<g><path style="opacity:0.788" fill="#303437" d="M 8.5,61.5 C 7.00084,61.9599 6.00084,63.2933 5.5,65.5C 5.3404,67.153 4.67373,68.4863 3.5,69.5C 3.5,68.1667 3.5,66.8333 3.5,65.5C 4.12835,62.91 5.29501,60.5766 7,58.5C 8.03859,59.2438 8.53859,60.2438 8.5,61.5 Z"/></g>
<g><path style="opacity:0.788" fill="#303437" d="M 48.5,61.5 C 47.0008,61.9599 46.0008,63.2933 45.5,65.5C 45.3404,67.153 44.6737,68.4863 43.5,69.5C 43.5,68.1667 43.5,66.8333 43.5,65.5C 44.1283,62.91 45.295,60.5766 47,58.5C 48.0386,59.2438 48.5386,60.2438 48.5,61.5 Z"/></g>
<g><path style="opacity:0.788" fill="#303437" d="M 86.5,61.5 C 85.0008,61.9599 84.0008,63.2933 83.5,65.5C 83.3404,67.153 82.6737,68.4863 81.5,69.5C 81.5,68.1667 81.5,66.8333 81.5,65.5C 82.1283,62.91 83.295,60.5766 85,58.5C 86.0386,59.2438 86.5386,60.2438 86.5,61.5 Z"/></g>
<g><path style="opacity:0.804" fill="#3a3b3c" d="M 128.5,60.5 C 129.674,61.5137 130.34,62.847 130.5,64.5C 129.075,62.9689 128.409,63.3023 128.5,65.5C 127.778,65.0825 127.278,64.4158 127,63.5C 126.617,64.056 126.117,64.3893 125.5,64.5C 126.001,62.2933 127.001,60.9599 128.5,60.5 Z"/></g>
<g><path style="opacity:0.38" fill="#2d3339" d="M 133.5,58.5 C 134.167,58.5 134.833,58.5 135.5,58.5C 135.262,60.6449 134.262,62.3115 132.5,63.5C 131.366,61.5615 131.7,59.8948 133.5,58.5 Z"/></g>
<g><path style="opacity:0.804" fill="#3a3b3c" d="M 170.5,60.5 C 171.674,61.5137 172.34,62.847 172.5,64.5C 171.075,62.9689 170.409,63.3023 170.5,65.5C 169.778,65.0825 169.278,64.4158 169,63.5C 168.617,64.056 168.117,64.3893 167.5,64.5C 168.001,62.2933 169.001,60.9599 170.5,60.5 Z"/></g>
<g><path style="opacity:0.38" fill="#2d3339" d="M 175.5,58.5 C 176.167,58.5 176.833,58.5 177.5,58.5C 177.262,60.6449 176.262,62.3115 174.5,63.5C 173.366,61.5615 173.7,59.8948 175.5,58.5 Z"/></g>
<g><path style="opacity:0.804" fill="#3a3b3c" d="M 8.5,61.5 C 9.67373,62.5137 10.3404,63.847 10.5,65.5C 9.07546,63.9689 8.40879,64.3023 8.5,66.5C 7.77842,66.0825 7.27842,65.4158 7,64.5C 6.61742,65.056 6.11742,65.3893 5.5,65.5C 6.00084,63.2933 7.00084,61.9599 8.5,61.5 Z"/></g>
<g><path style="opacity:0.38" fill="#2d3339" d="M 13.5,59.5 C 14.1667,59.5 14.8333,59.5 15.5,59.5C 15.2623,61.6449 14.2623,63.3115 12.5,64.5C 11.3664,62.5615 11.6997,60.8948 13.5,59.5 Z"/></g>
<g><path style="opacity:0.804" fill="#3a3b3c" d="M 48.5,61.5 C 49.6737,62.5137 50.3404,63.847 50.5,65.5C 49.0755,63.9689 48.4088,64.3023 48.5,66.5C 47.7784,66.0825 47.2784,65.4158 47,64.5C 46.6174,65.056 46.1174,65.3893 45.5,65.5C 46.0008,63.2933 47.0008,61.9599 48.5,61.5 Z"/></g>
<g><path style="opacity:0.38" fill="#2d3339" d="M 53.5,59.5 C 54.1667,59.5 54.8333,59.5 55.5,59.5C 55.2623,61.6449 54.2623,63.3115 52.5,64.5C 51.3664,62.5615 51.6997,60.8948 53.5,59.5 Z"/></g>
<g><path style="opacity:0.804" fill="#3a3b3c" d="M 86.5,61.5 C 87.6737,62.5137 88.3404,63.847 88.5,65.5C 87.0755,63.9689 86.4088,64.3023 86.5,66.5C 85.7784,66.0825 85.2784,65.4158 85,64.5C 84.6174,65.056 84.1174,65.3893 83.5,65.5C 84.0008,63.2933 85.0008,61.9599 86.5,61.5 Z"/></g>
<g><path style="opacity:0.38" fill="#2d3339" d="M 91.5,59.5 C 92.1667,59.5 92.8333,59.5 93.5,59.5C 93.2623,61.6449 92.2623,63.3115 90.5,64.5C 89.3664,62.5615 89.6997,60.8948 91.5,59.5 Z"/></g>
<g><path style="opacity:0.798" fill="#3c3d3e" d="M 142.5,61.5 C 143.674,62.5137 144.34,63.847 144.5,65.5C 143.075,63.9689 142.409,64.3023 142.5,66.5C 141.599,65.7095 140.932,64.7095 140.5,63.5C 141.833,63.5 142.5,62.8333 142.5,61.5 Z"/></g>
<g><path style="opacity:0.798" fill="#3c3d3e" d="M 184.5,61.5 C 185.674,62.5137 186.34,63.847 186.5,65.5C 185.075,63.9689 184.409,64.3023 184.5,66.5C 183.599,65.7095 182.932,64.7095 182.5,63.5C 183.833,63.5 184.5,62.8333 184.5,61.5 Z"/></g>
<g><path style="opacity:0.798" fill="#3c3d3e" d="M 22.5,62.5 C 23.6737,63.5137 24.3404,64.847 24.5,66.5C 23.0755,64.9689 22.4088,65.3023 22.5,67.5C 21.5987,66.7095 20.9321,65.7095 20.5,64.5C 21.8333,64.5 22.5,63.8333 22.5,62.5 Z"/></g>
<g><path style="opacity:0.798" fill="#3c3d3e" d="M 62.5,62.5 C 63.6737,63.5137 64.3404,64.847 64.5,66.5C 63.0755,64.9689 62.4088,65.3023 62.5,67.5C 61.5987,66.7095 60.9321,65.7095 60.5,64.5C 61.8333,64.5 62.5,63.8333 62.5,62.5 Z"/></g>
<g><path style="opacity:0.798" fill="#3c3d3e" d="M 100.5,62.5 C 101.674,63.5137 102.34,64.847 102.5,66.5C 101.075,64.9689 100.409,65.3023 100.5,67.5C 99.5987,66.7095 98.9321,65.7095 98.5,64.5C 99.8333,64.5 100.5,63.8333 100.5,62.5 Z"/></g>
<g><path style="opacity:0.682" fill="#37383a" d="M 139.5,62.5 C 139.405,64.7857 138.738,66.7857 137.5,68.5C 137.5,66.8333 137.5,65.1667 137.5,63.5C 137.842,62.6618 138.508,62.3284 139.5,62.5 Z"/></g>
<g><path style="opacity:0.796" fill="#38393a" d="M 144.5,65.5 C 145.674,66.5137 146.34,67.847 146.5,69.5C 145.883,69.3893 145.383,69.056 145,68.5C 142.894,70.291 140.394,70.9577 137.5,70.5C 137.167,70.5 136.833,70.5 136.5,70.5C 136.5,70.1667 136.5,69.8333 136.5,69.5C 136.833,69.5 137.167,69.5 137.5,69.5C 139.527,69.6621 141.527,69.4955 143.5,69C 142.748,68.3292 142.414,67.4959 142.5,66.5C 142.409,64.3023 143.075,63.9689 144.5,65.5 Z"/></g>
<g><path style="opacity:0.682" fill="#37383a" d="M 181.5,62.5 C 181.405,64.7857 180.738,66.7857 179.5,68.5C 179.5,66.8333 179.5,65.1667 179.5,63.5C 179.842,62.6618 180.508,62.3284 181.5,62.5 Z"/></g>
<g><path style="opacity:0.796" fill="#38393a" d="M 186.5,65.5 C 187.674,66.5137 188.34,67.847 188.5,69.5C 187.883,69.3893 187.383,69.056 187,68.5C 184.894,70.291 182.394,70.9577 179.5,70.5C 179.167,70.5 178.833,70.5 178.5,70.5C 178.5,70.1667 178.5,69.8333 178.5,69.5C 178.833,69.5 179.167,69.5 179.5,69.5C 181.527,69.6621 183.527,69.4955 185.5,69C 184.748,68.3292 184.414,67.4959 184.5,66.5C 184.409,64.3023 185.075,63.9689 186.5,65.5 Z"/></g>
<g><path style="opacity:0.682" fill="#37383a" d="M 19.5,63.5 C 19.405,65.7857 18.7384,67.7857 17.5,69.5C 17.5,67.8333 17.5,66.1667 17.5,64.5C 17.8417,63.6618 18.5084,63.3284 19.5,63.5 Z"/></g>
<g><path style="opacity:0.796" fill="#38393a" d="M 24.5,66.5 C 25.6737,67.5137 26.3404,68.847 26.5,70.5C 25.8826,70.3893 25.3826,70.056 25,69.5C 22.8938,71.291 20.3938,71.9577 17.5,71.5C 17.1667,71.5 16.8333,71.5 16.5,71.5C 16.5,71.1667 16.5,70.8333 16.5,70.5C 16.8333,70.5 17.1667,70.5 17.5,70.5C 19.5273,70.6621 21.5273,70.4955 23.5,70C 22.7476,69.3292 22.4142,68.4959 22.5,67.5C 22.4088,65.3023 23.0755,64.9689 24.5,66.5 Z"/></g>
<g><path style="opacity:0.682" fill="#37383a" d="M 59.5,63.5 C 59.405,65.7857 58.7384,67.7857 57.5,69.5C 57.5,67.8333 57.5,66.1667 57.5,64.5C 57.8417,63.6618 58.5084,63.3284 59.5,63.5 Z"/></g>
<g><path style="opacity:0.796" fill="#38393a" d="M 64.5,66.5 C 65.6737,67.5137 66.3404,68.847 66.5,70.5C 65.8826,70.3893 65.3826,70.056 65,69.5C 62.8938,71.291 60.3938,71.9577 57.5,71.5C 57.1667,71.5 56.8333,71.5 56.5,71.5C 56.5,71.1667 56.5,70.8333 56.5,70.5C 56.8333,70.5 57.1667,70.5 57.5,70.5C 59.5273,70.6621 61.5273,70.4955 63.5,70C 62.7476,69.3292 62.4142,68.4959 62.5,67.5C 62.4088,65.3023 63.0755,64.9689 64.5,66.5 Z"/></g>
<g><path style="opacity:0.682" fill="#37383a" d="M 97.5,63.5 C 97.405,65.7857 96.7384,67.7857 95.5,69.5C 95.5,67.8333 95.5,66.1667 95.5,64.5C 95.8417,63.6618 96.5084,63.3284 97.5,63.5 Z"/></g>
<g><path style="opacity:0.796" fill="#38393a" d="M 102.5,66.5 C 103.674,67.5137 104.34,68.847 104.5,70.5C 103.883,70.3893 103.383,70.056 103,69.5C 100.894,71.291 98.3938,71.9577 95.5,71.5C 95.1667,71.5 94.8333,71.5 94.5,71.5C 94.5,71.1667 94.5,70.8333 94.5,70.5C 94.8333,70.5 95.1667,70.5 95.5,70.5C 97.5273,70.6621 99.5273,70.4955 101.5,70C 100.748,69.3292 100.414,68.4959 100.5,67.5C 100.409,65.3023 101.075,64.9689 102.5,66.5 Z"/></g>
<g><path style="opacity:0.857" fill="#2c353d" d="M 123.5,64.5 C 123.5,65.8333 123.5,67.1667 123.5,68.5C 123.5,68.8333 123.5,69.1667 123.5,69.5C 123.167,69.5 122.833,69.5 122.5,69.5C 121.662,69.8417 121.328,70.5084 121.5,71.5C 121.5,71.8333 121.5,72.1667 121.5,72.5C 120.624,72.6309 119.957,72.2975 119.5,71.5C 120.929,69.1074 122.263,66.7741 123.5,64.5 Z"/></g>
<g><path style="opacity:0.798" fill="#373739" d="M 130.5,64.5 C 131.674,65.5137 132.34,66.847 132.5,68.5C 131.075,66.9689 130.409,67.3023 130.5,69.5C 130.167,69.5 129.833,69.5 129.5,69.5C 129.167,68.1667 128.833,66.8333 128.5,65.5C 128.409,63.3023 129.075,62.9689 130.5,64.5 Z"/></g>
<g><path style="opacity:0.973" fill="#2b3239" d="M 137.5,63.5 C 137.5,65.1667 137.5,66.8333 137.5,68.5C 137.5,68.8333 137.5,69.1667 137.5,69.5C 137.167,69.5 136.833,69.5 136.5,69.5C 136.672,68.5084 136.338,67.8417 135.5,67.5C 135.66,65.847 136.326,64.5137 137.5,63.5 Z"/></g>
<g><path style="opacity:0.857" fill="#2c353d" d="M 165.5,64.5 C 165.5,65.8333 165.5,67.1667 165.5,68.5C 165.5,68.8333 165.5,69.1667 165.5,69.5C 165.167,69.5 164.833,69.5 164.5,69.5C 163.662,69.8417 163.328,70.5084 163.5,71.5C 163.5,71.8333 163.5,72.1667 163.5,72.5C 162.624,72.6309 161.957,72.2975 161.5,71.5C 162.929,69.1074 164.263,66.7741 165.5,64.5 Z"/></g>
<g><path style="opacity:0.798" fill="#373739" d="M 172.5,64.5 C 173.674,65.5137 174.34,66.847 174.5,68.5C 173.075,66.9689 172.409,67.3023 172.5,69.5C 172.167,69.5 171.833,69.5 171.5,69.5C 171.167,68.1667 170.833,66.8333 170.5,65.5C 170.409,63.3023 171.075,62.9689 172.5,64.5 Z"/></g>
<g><path style="opacity:0.973" fill="#2b3239" d="M 179.5,63.5 C 179.5,65.1667 179.5,66.8333 179.5,68.5C 179.5,68.8333 179.5,69.1667 179.5,69.5C 179.167,69.5 178.833,69.5 178.5,69.5C 178.672,68.5084 178.338,67.8417 177.5,67.5C 177.66,65.847 178.326,64.5137 179.5,63.5 Z"/></g>
<g><path style="opacity:0.857" fill="#2c353d" d="M 3.5,65.5 C 3.5,66.8333 3.5,68.1667 3.5,69.5C 3.5,69.8333 3.5,70.1667 3.5,70.5C 3.16667,70.5 2.83333,70.5 2.5,70.5C 1.66175,70.8417 1.32842,71.5084 1.5,72.5C 1.5,72.8333 1.5,73.1667 1.5,73.5C 0.833333,73.5 0.166667,73.5 -0.5,73.5C -0.5,72.8333 -0.5,72.1667 -0.5,71.5C 1.25602,69.751 2.58936,67.751 3.5,65.5 Z"/></g>
<g><path style="opacity:0.798" fill="#373739" d="M 10.5,65.5 C 11.6737,66.5137 12.3404,67.847 12.5,69.5C 11.0755,67.9689 10.4088,68.3023 10.5,70.5C 10.1667,70.5 9.83333,70.5 9.5,70.5C 9.16667,69.1667 8.83333,67.8333 8.5,66.5C 8.40879,64.3023 9.07546,63.9689 10.5,65.5 Z"/></g>
<g><path style="opacity:0.973" fill="#2b3239" d="M 17.5,64.5 C 17.5,66.1667 17.5,67.8333 17.5,69.5C 17.5,69.8333 17.5,70.1667 17.5,70.5C 17.1667,70.5 16.8333,70.5 16.5,70.5C 16.6716,69.5084 16.3382,68.8417 15.5,68.5C 15.6596,66.847 16.3263,65.5137 17.5,64.5 Z"/></g>
<g><path style="opacity:0.857" fill="#2c353d" d="M 43.5,65.5 C 43.5,66.8333 43.5,68.1667 43.5,69.5C 43.5,69.8333 43.5,70.1667 43.5,70.5C 43.1667,70.5 42.8333,70.5 42.5,70.5C 41.6618,70.8417 41.3284,71.5084 41.5,72.5C 41.5,72.8333 41.5,73.1667 41.5,73.5C 40.6236,73.6309 39.9569,73.2975 39.5,72.5C 40.9295,70.1074 42.2628,67.7741 43.5,65.5 Z"/></g>
<g><path style="opacity:0.798" fill="#373739" d="M 50.5,65.5 C 51.6737,66.5137 52.3404,67.847 52.5,69.5C 51.0755,67.9689 50.4088,68.3023 50.5,70.5C 50.1667,70.5 49.8333,70.5 49.5,70.5C 49.1667,69.1667 48.8333,67.8333 48.5,66.5C 48.4088,64.3023 49.0755,63.9689 50.5,65.5 Z"/></g>
<g><path style="opacity:0.973" fill="#2b3239" d="M 57.5,64.5 C 57.5,66.1667 57.5,67.8333 57.5,69.5C 57.5,69.8333 57.5,70.1667 57.5,70.5C 57.1667,70.5 56.8333,70.5 56.5,70.5C 56.6716,69.5084 56.3382,68.8417 55.5,68.5C 55.6596,66.847 56.3263,65.5137 57.5,64.5 Z"/></g>
<g><path style="opacity:0.857" fill="#2c353d" d="M 81.5,65.5 C 81.5,66.8333 81.5,68.1667 81.5,69.5C 81.5,69.8333 81.5,70.1667 81.5,70.5C 81.1667,70.5 80.8333,70.5 80.5,70.5C 79.6618,70.8417 79.3284,71.5084 79.5,72.5C 79.5,72.8333 79.5,73.1667 79.5,73.5C 78.6236,73.6309 77.9569,73.2975 77.5,72.5C 78.9295,70.1074 80.2628,67.7741 81.5,65.5 Z"/></g>
<g><path style="opacity:0.798" fill="#373739" d="M 88.5,65.5 C 89.6737,66.5137 90.3404,67.847 90.5,69.5C 89.0755,67.9689 88.4088,68.3023 88.5,70.5C 88.1667,70.5 87.8333,70.5 87.5,70.5C 87.1667,69.1667 86.8333,67.8333 86.5,66.5C 86.4088,64.3023 87.0755,63.9689 88.5,65.5 Z"/></g>
<g><path style="opacity:0.973" fill="#2b3239" d="M 95.5,64.5 C 95.5,66.1667 95.5,67.8333 95.5,69.5C 95.5,69.8333 95.5,70.1667 95.5,70.5C 95.1667,70.5 94.8333,70.5 94.5,70.5C 94.6716,69.5084 94.3382,68.8417 93.5,68.5C 93.6596,66.847 94.3263,65.5137 95.5,64.5 Z"/></g>
<g><path style="opacity:0.788" fill="#373739" d="M 132.5,68.5 C 133.167,68.5 133.5,68.8333 133.5,69.5C 133.5,69.8333 133.5,70.1667 133.5,70.5C 132.075,68.9689 131.409,69.3023 131.5,71.5C 130.662,71.1583 130.328,70.4916 130.5,69.5C 130.409,67.3023 131.075,66.9689 132.5,68.5 Z"/></g>
<g><path style="opacity:0.969" fill="#30363c" d="M 135.5,67.5 C 136.338,67.8417 136.672,68.5084 136.5,69.5C 136.5,69.8333 136.5,70.1667 136.5,70.5C 136.672,71.4916 136.338,72.1583 135.5,72.5C 134.833,71.8333 134.167,71.1667 133.5,70.5C 133.5,70.1667 133.5,69.8333 133.5,69.5C 134.167,68.8333 134.833,68.1667 135.5,67.5 Z"/></g>
<g><path style="opacity:0.788" fill="#373739" d="M 174.5,68.5 C 175.167,68.5 175.5,68.8333 175.5,69.5C 175.5,69.8333 175.5,70.1667 175.5,70.5C 174.075,68.9689 173.409,69.3023 173.5,71.5C 172.662,71.1583 172.328,70.4916 172.5,69.5C 172.409,67.3023 173.075,66.9689 174.5,68.5 Z"/></g>
<g><path style="opacity:0.969" fill="#30363c" d="M 177.5,67.5 C 178.338,67.8417 178.672,68.5084 178.5,69.5C 178.5,69.8333 178.5,70.1667 178.5,70.5C 178.672,71.4916 178.338,72.1583 177.5,72.5C 176.833,71.8333 176.167,71.1667 175.5,70.5C 175.5,70.1667 175.5,69.8333 175.5,69.5C 176.167,68.8333 176.833,68.1667 177.5,67.5 Z"/></g>
<g><path style="opacity:0.788" fill="#373739" d="M 12.5,69.5 C 13.1667,69.5 13.5,69.8333 13.5,70.5C 13.5,70.8333 13.5,71.1667 13.5,71.5C 12.0755,69.9689 11.4088,70.3023 11.5,72.5C 10.6618,72.1583 10.3284,71.4916 10.5,70.5C 10.4088,68.3023 11.0755,67.9689 12.5,69.5 Z"/></g>
<g><path style="opacity:0.969" fill="#30363c" d="M 15.5,68.5 C 16.3382,68.8417 16.6716,69.5084 16.5,70.5C 16.5,70.8333 16.5,71.1667 16.5,71.5C 16.6716,72.4916 16.3382,73.1583 15.5,73.5C 14.8333,72.8333 14.1667,72.1667 13.5,71.5C 13.5,71.1667 13.5,70.8333 13.5,70.5C 14.1667,69.8333 14.8333,69.1667 15.5,68.5 Z"/></g>
<g><path style="opacity:0.788" fill="#373739" d="M 52.5,69.5 C 53.1667,69.5 53.5,69.8333 53.5,70.5C 53.5,70.8333 53.5,71.1667 53.5,71.5C 52.0755,69.9689 51.4088,70.3023 51.5,72.5C 50.6618,72.1583 50.3284,71.4916 50.5,70.5C 50.4088,68.3023 51.0755,67.9689 52.5,69.5 Z"/></g>
<g><path style="opacity:0.969" fill="#30363c" d="M 55.5,68.5 C 56.3382,68.8417 56.6716,69.5084 56.5,70.5C 56.5,70.8333 56.5,71.1667 56.5,71.5C 56.6716,72.4916 56.3382,73.1583 55.5,73.5C 54.8333,72.8333 54.1667,72.1667 53.5,71.5C 53.5,71.1667 53.5,70.8333 53.5,70.5C 54.1667,69.8333 54.8333,69.1667 55.5,68.5 Z"/></g>
<g><path style="opacity:0.788" fill="#373739" d="M 90.5,69.5 C 91.1667,69.5 91.5,69.8333 91.5,70.5C 91.5,70.8333 91.5,71.1667 91.5,71.5C 90.0755,69.9689 89.4088,70.3023 89.5,72.5C 88.6618,72.1583 88.3284,71.4916 88.5,70.5C 88.4088,68.3023 89.0755,67.9689 90.5,69.5 Z"/></g>
<g><path style="opacity:0.969" fill="#30363c" d="M 93.5,68.5 C 94.3382,68.8417 94.6716,69.5084 94.5,70.5C 94.5,70.8333 94.5,71.1667 94.5,71.5C 94.6716,72.4916 94.3382,73.1583 93.5,73.5C 92.8333,72.8333 92.1667,72.1667 91.5,71.5C 91.5,71.1667 91.5,70.8333 91.5,70.5C 92.1667,69.8333 92.8333,69.1667 93.5,68.5 Z"/></g>
<g><path style="opacity:0.118" fill="#393a3b" d="M 122.5,69.5 C 122.833,69.5 123.167,69.5 123.5,69.5C 125.5,69.5 127.5,69.5 129.5,69.5C 129.5,70.5 129.5,71.5 129.5,72.5C 126.833,72.5 124.167,72.5 121.5,72.5C 121.5,72.1667 121.5,71.8333 121.5,71.5C 123.857,71.6633 126.19,71.4966 128.5,71C 126.292,70.8091 124.292,70.3091 122.5,69.5 Z"/></g>
<g><path style="opacity:0.118" fill="#393a3b" d="M 164.5,69.5 C 164.833,69.5 165.167,69.5 165.5,69.5C 167.5,69.5 169.5,69.5 171.5,69.5C 171.5,70.5 171.5,71.5 171.5,72.5C 168.833,72.5 166.167,72.5 163.5,72.5C 163.5,72.1667 163.5,71.8333 163.5,71.5C 165.857,71.6633 168.19,71.4966 170.5,71C 168.292,70.8091 166.292,70.3091 164.5,69.5 Z"/></g>
<g><path style="opacity:0.118" fill="#393a3b" d="M 2.5,70.5 C 2.83333,70.5 3.16667,70.5 3.5,70.5C 5.5,70.5 7.5,70.5 9.5,70.5C 9.5,71.5 9.5,72.5 9.5,73.5C 6.83333,73.5 4.16667,73.5 1.5,73.5C 1.5,73.1667 1.5,72.8333 1.5,72.5C 3.85684,72.6633 6.19018,72.4966 8.5,72C 6.29221,71.8091 4.29221,71.3091 2.5,70.5 Z"/></g>
<g><path style="opacity:0.118" fill="#393a3b" d="M 42.5,70.5 C 42.8333,70.5 43.1667,70.5 43.5,70.5C 45.5,70.5 47.5,70.5 49.5,70.5C 49.5,71.5 49.5,72.5 49.5,73.5C 46.8333,73.5 44.1667,73.5 41.5,73.5C 41.5,73.1667 41.5,72.8333 41.5,72.5C 43.8568,72.6633 46.1902,72.4966 48.5,72C 46.2922,71.8091 44.2922,71.3091 42.5,70.5 Z"/></g>
<g><path style="opacity:0.118" fill="#393a3b" d="M 80.5,70.5 C 80.8333,70.5 81.1667,70.5 81.5,70.5C 83.5,70.5 85.5,70.5 87.5,70.5C 87.5,71.5 87.5,72.5 87.5,73.5C 84.8333,73.5 82.1667,73.5 79.5,73.5C 79.5,73.1667 79.5,72.8333 79.5,72.5C 81.8568,72.6633 84.1902,72.4966 86.5,72C 84.2922,71.8091 82.2922,71.3091 80.5,70.5 Z"/></g>
<g><path style="opacity:0.987" fill="#2c2d2f" d="M 122.5,69.5 C 124.292,70.3091 126.292,70.8091 128.5,71C 126.19,71.4966 123.857,71.6633 121.5,71.5C 121.328,70.5084 121.662,69.8417 122.5,69.5 Z"/></g>
<g><path style="opacity:0.988" fill="#2c2e31" d="M 146.5,69.5 C 144.365,71.369 141.698,72.0356 138.5,71.5C 137.833,71.5 137.5,71.1667 137.5,70.5C 140.394,70.9577 142.894,70.291 145,68.5C 145.383,69.056 145.883,69.3893 146.5,69.5 Z"/></g>
<g><path style="opacity:0.987" fill="#2c2d2f" d="M 164.5,69.5 C 166.292,70.3091 168.292,70.8091 170.5,71C 168.19,71.4966 165.857,71.6633 163.5,71.5C 163.328,70.5084 163.662,69.8417 164.5,69.5 Z"/></g>
<g><path style="opacity:0.988" fill="#2c2e31" d="M 188.5,69.5 C 186.365,71.369 183.698,72.0356 180.5,71.5C 179.833,71.5 179.5,71.1667 179.5,70.5C 182.394,70.9577 184.894,70.291 187,68.5C 187.383,69.056 187.883,69.3893 188.5,69.5 Z"/></g>
<g><path style="opacity:0.987" fill="#2c2d2f" d="M 2.5,70.5 C 4.29221,71.3091 6.29221,71.8091 8.5,72C 6.19018,72.4966 3.85684,72.6633 1.5,72.5C 1.32842,71.5084 1.66175,70.8417 2.5,70.5 Z"/></g>
<g><path style="opacity:0.988" fill="#2c2e31" d="M 26.5,70.5 C 24.3647,72.369 21.6981,73.0356 18.5,72.5C 17.8333,72.5 17.5,72.1667 17.5,71.5C 20.3938,71.9577 22.8938,71.291 25,69.5C 25.3826,70.056 25.8826,70.3893 26.5,70.5 Z"/></g>
<g><path style="opacity:0.987" fill="#2c2d2f" d="M 42.5,70.5 C 44.2922,71.3091 46.2922,71.8091 48.5,72C 46.1902,72.4966 43.8568,72.6633 41.5,72.5C 41.3284,71.5084 41.6618,70.8417 42.5,70.5 Z"/></g>
<g><path style="opacity:0.988" fill="#2c2e31" d="M 66.5,70.5 C 64.3647,72.369 61.6981,73.0356 58.5,72.5C 57.8333,72.5 57.5,72.1667 57.5,71.5C 60.3938,71.9577 62.8938,71.291 65,69.5C 65.3826,70.056 65.8826,70.3893 66.5,70.5 Z"/></g>
<g><path style="opacity:0.987" fill="#2c2d2f" d="M 80.5,70.5 C 82.2922,71.3091 84.2922,71.8091 86.5,72C 84.1902,72.4966 81.8568,72.6633 79.5,72.5C 79.3284,71.5084 79.6618,70.8417 80.5,70.5 Z"/></g>
<g><path style="opacity:0.988" fill="#2c2e31" d="M 104.5,70.5 C 102.365,72.369 99.6981,73.0356 96.5,72.5C 95.8333,72.5 95.5,72.1667 95.5,71.5C 98.3938,71.9577 100.894,71.291 103,69.5C 103.383,70.056 103.883,70.3893 104.5,70.5 Z"/></g>
<g><path style="opacity:0.929" fill="#323335" d="M 133.5,70.5 C 134.167,71.1667 134.833,71.8333 135.5,72.5C 133.649,76.3866 132.316,76.0532 131.5,71.5C 131.409,69.3023 132.075,68.9689 133.5,70.5 Z"/></g>
<g><path style="opacity:0.314" fill="#393a3c" d="M 146.5,69.5 C 147.404,70.209 147.737,71.209 147.5,72.5C 144.287,72.81 141.287,72.4767 138.5,71.5C 141.698,72.0356 144.365,71.369 146.5,69.5 Z"/></g>
<g><path style="opacity:0.929" fill="#323335" d="M 175.5,70.5 C 176.167,71.1667 176.833,71.8333 177.5,72.5C 175.649,76.3866 174.316,76.0532 173.5,71.5C 173.409,69.3023 174.075,68.9689 175.5,70.5 Z"/></g>
<g><path style="opacity:0.314" fill="#393a3c" d="M 188.5,69.5 C 189.404,70.209 189.737,71.209 189.5,72.5C 186.287,72.81 183.287,72.4767 180.5,71.5C 183.698,72.0356 186.365,71.369 188.5,69.5 Z"/></g>
<g><path style="opacity:0.929" fill="#323335" d="M 13.5,71.5 C 14.1667,72.1667 14.8333,72.8333 15.5,73.5C 14.8902,74.391 14.5569,75.391 14.5,76.5C 13.8333,76.5 13.1667,76.5 12.5,76.5C 12.1667,75.1667 11.8333,73.8333 11.5,72.5C 11.4088,70.3023 12.0755,69.9689 13.5,71.5 Z"/></g>
<g><path style="opacity:0.314" fill="#393a3c" d="M 26.5,70.5 C 27.404,71.209 27.7373,72.209 27.5,73.5C 24.2869,73.81 21.2869,73.4767 18.5,72.5C 21.6981,73.0356 24.3647,72.369 26.5,70.5 Z"/></g>
<g><path style="opacity:0.929" fill="#323335" d="M 53.5,71.5 C 54.1667,72.1667 54.8333,72.8333 55.5,73.5C 54.8902,74.391 54.5569,75.391 54.5,76.5C 53.8333,76.5 53.1667,76.5 52.5,76.5C 52.1667,75.1667 51.8333,73.8333 51.5,72.5C 51.4088,70.3023 52.0755,69.9689 53.5,71.5 Z"/></g>
<g><path style="opacity:0.314" fill="#393a3c" d="M 66.5,70.5 C 67.404,71.209 67.7373,72.209 67.5,73.5C 64.2869,73.81 61.2869,73.4767 58.5,72.5C 61.6981,73.0356 64.3647,72.369 66.5,70.5 Z"/></g>
<g><path style="opacity:0.929" fill="#323335" d="M 91.5,71.5 C 92.1667,72.1667 92.8333,72.8333 93.5,73.5C 92.8902,74.391 92.5569,75.391 92.5,76.5C 91.8333,76.5 91.1667,76.5 90.5,76.5C 90.1667,75.1667 89.8333,73.8333 89.5,72.5C 89.4088,70.3023 90.0755,69.9689 91.5,71.5 Z"/></g>
<g><path style="opacity:0.314" fill="#393a3c" d="M 104.5,70.5 C 105.404,71.209 105.737,72.209 105.5,73.5C 102.287,73.81 99.2869,73.4767 96.5,72.5C 99.6981,73.0356 102.365,72.369 104.5,70.5 Z"/></g>
</svg>
